<?xml version="1.0" encoding="utf-8"?>
<!-- Generator: Adobe Illustrator 20.1.0, SVG Export Plug-In . SVG Version: 6.00 Build 0)  -->
<svg version="1.1" id="Layer_1" xmlns="http://www.w3.org/2000/svg" xmlns:xlink="http://www.w3.org/1999/xlink" x="0px" y="0px"
	 viewBox="0 0 255 80" style="enable-background:new 0 0 255 80;" xml:space="preserve">
<style type="text/css">
	.st0{fill:#E75300;}
	.st1{fill-rule:evenodd;clip-rule:evenodd;fill:#AD441D;}
	.st2{fill-rule:evenodd;clip-rule:evenodd;fill:#FFD26C;}
	.st3{fill:#FFFFFF;}
	.st4{fill-rule:evenodd;clip-rule:evenodd;fill:#FFC656;}
	.st5{fill:#00758D;}
	.st6{fill-rule:evenodd;clip-rule:evenodd;fill:#231F20;}
</style>
<g>
	<path class="st0" d="M62.4,29.7c4.3,3.1,8.4,7.8,8.2,10.3c-0.1,1.5-5.4,6.8-11.2,8.9c1.4,5.2,1.5,11.4-0.2,13.3
		c-0.9,1-7.7,1.7-13.4-0.2c0.3-1.1,0.6-2.5,0.6-4.2c0.2-6.9,8.9-11.4,8.9-23.5c0-11.4-11-19.7-20.1-19.7c-9,0-20.1,8.3-20.1,19.7
		c0,12.1,8.7,16.6,8.9,23.5c0.1,1.9,0.3,3.5,0.8,4.7c-4.5,2-9.9,3-11.8,1.7c-1.2-0.8-3.1-8.2-1.9-14.4c-5-1.4-10.4-4.4-11.2-6.8
		c-0.4-1.4,2.7-8.3,7.6-12.3c-3-4.4-5.3-10.2-4.3-12.5c0.6-1.4,7.3-4.5,13.6-4.5c0.4-5.3,2.4-11.3,4.6-12.4
		c1.3-0.7,8.5,1.3,13.2,5.5c3.7-3.8,8.9-7.1,11.3-6.5c1.4,0.3,5.7,6.6,6.7,12.9c5.2-0.5,11.3,0.5,12.8,2.5
		C66.3,16.6,65.6,24.2,62.4,29.7z"/>
	<path class="st1" d="M42.4,42.4c4.3,0.5,8.7-3.1,13.2-0.5c1.6,1,3,3.8,3.8,7c-2,0.7-4.1,1.1-6.1,0.7C49.6,49,45.3,45.5,42.4,42.4z
		 M25.2,37.8c-2.5,3.6-1.7,9.3-6.2,11.9c-1.6,1-4.7,0.8-7.9-0.1c0.4-2.2,1.2-4.2,2.5-5.8C16,40.9,21.1,38.8,25.2,37.8z M25.8,30.7
		c-4.2,1.1-7.2,6-12.2,5.1c-1.9-0.3-4.1-2.5-5.9-5.3c1.7-1.4,3.5-2.4,5.5-2.8C16.8,27,22,28.7,25.8,30.7z M30.7,25.5
		c-3.9-1.9-9.2-0.1-12.5-4.1c-1.2-1.5-1.5-4.6-1.3-7.9c2.1,0,4.2,0.4,6,1.5C26.1,16.8,29,21.6,30.7,25.5z M37.7,24.9
		c-1.8-4.1-7-6.2-7-11.4c0-1.9,1.7-4.5,4-6.9c1.6,1.4,3,3.1,3.7,5.1C39.7,15.2,38.9,20.7,37.7,24.9z M45.3,35.8
		c3.6-2.5,4.7-8.1,9.8-9c1.9-0.3,4.7,0.9,7.3,2.9c-1.1,1.9-2.5,3.5-4.2,4.6C55,36.2,49.5,36.4,45.3,35.8z M52.7,12.9
		c0.3,2.2,0.3,4.3-0.4,6.3c-1.2,3.6-5.3,7.3-8.9,9.7c1.2-4.3-1.5-9.3,1.8-13.3C46.5,14.1,49.4,13.2,52.7,12.9z"/>
	<path class="st2" d="M27.8,65.2c-0.9-0.3-1.7-0.9-2.1-1.6c-0.8-1.3-1.4-3.1-1.5-5.9c-0.2-6.9-8.9-11.4-8.9-23.5
		c0-11.4,11-19.7,20.1-19.7c9,0,20.1,8.3,20.1,19.7c0,12.1-8.7,16.6-8.9,23.5c-0.1,2.9-0.7,4.8-1.6,6.1c-0.5,0.7-1.1,1.1-1.9,1.5
		c-0.1,0-0.1,0-0.2,0L27.8,65.2L27.8,65.2z"/>
	<path class="st3" d="M39.3,37.2c0.3-0.4,2.5,0.1,4.5-0.5c0.6-0.2,1.1-0.5,1.6-0.8c-3.2-0.4-5.6-1.2-5.7-1.9c0-0.5,2-1.5,3.1-3.4
		c0.3-0.5,0.5-1.1,0.7-1.7c-2.7,1.8-5,2.8-5.5,2.3c-0.4-0.4,0.6-2.5,0.3-4.6c-0.1-0.6-0.3-1.2-0.5-1.7c-0.9,3.1-2.1,5.4-2.8,5.4
		c-0.5,0-1.1-2.3-2.7-3.7c-0.5-0.4-1-0.7-1.5-1c1.3,3,1.8,5.5,1.2,6c-0.4,0.3-2.3-1-4.4-1.1c-0.6,0-1.2,0.1-1.8,0.2
		c2.8,1.5,4.8,3,4.7,3.8c-0.1,0.5-2.4,0.7-4,2.1c-0.5,0.4-0.9,0.8-1.2,1.3c3.1-0.7,5.6-0.9,6-0.2c0.2,0.5-1.4,2.1-1.8,4.2
		c-0.1,0.6-0.1,1.2-0.1,1.8c1.9-2.6,3.8-4.3,4.4-4.1c0.5,0.2,0.3,2.5,1.3,4.4c0.3,0.6,0.7,1,1.1,1.5c-0.2-3.2,0.2-5.8,0.8-6
		c0.5-0.1,1.8,1.7,3.8,2.5c0.6,0.2,1.1,0.4,1.7,0.4C40.3,40,38.9,37.8,39.3,37.2z"/>
	<path class="st4" d="M44,61.2c-0.6-0.3-1.1-0.6-1.6-0.9c-0.9-0.6-1.8-1.3-2.5-2.2c-2.4-2.9-3.5-8.4-3.8-12.7
		c3,3.2,8.6,3.3,10.4,8.3c0.1,0.2,0.1,0.3,0.1,0.5l0.3,1.1c-0.2,0.8-0.4,1.6-0.4,2.4c-0.1,1.7-0.3,3.1-0.6,4.3
		C45.3,61.8,44.7,61.5,44,61.2z M29.3,43.7c0.3,4.4,4.5,8.2,2.8,13.2c-0.5,1.4-2,2.8-4,4c-0.6,0.4-1.3,0.8-2.1,1.1
		c-0.4,0.2-0.7,0.3-1,0.5c-0.4-1.2-0.7-2.8-0.8-4.7c0-0.2,0-0.3,0-0.5c0-0.5,0-0.9,0-1.4c0-0.4,0-0.9,0.1-1.3
		C24.8,51,27,46.7,29.3,43.7z M50.7,22.2c-1.8,2.6-4.7,5.1-7.3,6.8c1.1-3.8-0.9-8.2,0.9-11.9C46.7,18.3,48.9,20,50.7,22.2z
		 M45.3,35.8c3.3-2.3,4.5-7.2,8.6-8.7c0.9,2.2,1.5,4.5,1.5,7.1c0,0.4,0,0.8,0,1.2C52.3,36.2,48.4,36.2,45.3,35.8z M37.7,24.9
		c-1.6-3.6-5.8-5.6-6.8-9.7c1.5-0.4,3-0.6,4.5-0.6c1.2,0,2.4,0.1,3.7,0.4C39.2,18.1,38.6,21.9,37.7,24.9z M30.7,25.5
		c-3.4-1.7-7.9-0.5-11.2-2.9c1.7-2.2,3.9-4,6.2-5.3C27.8,19.6,29.5,22.8,30.7,25.5z M25.8,30.7c-3.7,1-6.4,4.8-10.4,5.2
		c0-0.5-0.1-1.1-0.1-1.6c0-2.3,0.5-4.6,1.3-6.6C19.6,28,23.1,29.3,25.8,30.7z M25.2,37.8c-2.3,3.2-1.8,8.2-5,11
		c-1.4-2.2-2.8-4.5-3.8-7.4C19,39.8,22.4,38.5,25.2,37.8z M42.4,42.4c3.9,0.4,7.9-2.5,11.9-1.1c-1,2.9-2.4,5.3-3.8,7.4
		C47.6,47.3,44.6,44.7,42.4,42.4z"/>
	<path class="st5" d="M42.8,72.1v1c0.7,0,1.3,0.7,1.3,1.5S43.6,76,42.8,76l-4.9,1.3c0.3,0.3,0.5,0.7,0.5,1.2c0,0.8-0.6,1.5-1.3,1.5
		h-3.6c-0.7,0-1.3-0.7-1.3-1.5c0-0.6,0.3-1.1,0.7-1.3L27.8,76c-0.7,0-1.3-0.7-1.3-1.5s0.6-1.5,1.3-1.5h12.1l0-0.3l-12.1-0.7
		c-0.7,0-1.3-0.7-1.3-1.5c0-0.8,0.6-1.5,1.3-1.5h12l0-0.3l-12-0.7c-0.7,0-1.3-0.7-1.3-1.5s0.6-1.5,1.3-1.5h15c0.7,0,1.3,0.7,1.3,1.5
		s-0.6,1.5-1.3,1.5l-0.1,0v1h0.1c0.7,0,1.3,0.7,1.3,1.5C44.1,71.4,43.6,72.1,42.8,72.1z"/>
	<path class="st6" d="M228.5,25.3c0.5-1.3,2.6-3.5,4.6-3.5c0.5,0,1.4,0.2,1.4,0.2v4.4c0,0-1-0.3-1.5-0.3c-2.9,0-4.4,3.1-4.4,6.3
		l0,7.4h-4.2v-14c0-0.1,0-0.1,0-0.1c0,0-0.1,0-0.1,0H222v-3.6h3.8c1.4,0,2.7,0.7,2.7,2.2C228.5,24.3,228.5,25.1,228.5,25.3z
		 M168.2,24.2c1.1-1.3,2.9-2.6,5.7-2.6c4.1,0,6,2.5,6,6.9l0,7V36c0,0.1,0,0.1,0,0.1c0,0,0.1,0,0.1,0h2.1v3.6h-3.8
		c-1.4,0-2.6-0.7-2.6-2.2l0-0.9l0-7.4c0-2.3-0.4-3.6-2.5-3.6c-2.9,0-4.9,2.7-4.9,5.8v1.8v2.9v3.6H164v-3.6v-2.3v-8.1
		c0-0.1,0-0.1,0-0.1c0,0-0.1,0-0.1,0h-2.1v-3.6h3.8C167.2,21.9,168.1,22.7,168.2,24.2z M86.1,20c1,0,1.4,0.7,1.4,1.5V24H85v-1.7
		h-2.2v12.8h-2.7V22.4h-2.2V24h-2.4v-2.4c0-0.9,0.4-1.7,1.4-1.7H86.1z M91.9,25.4c0.7-0.8,1.9-1.5,3.4-1.5c2.6,0,3.8,1.5,3.8,4.3
		v4.7h1.6v2.3h-4.2v-6.5c0-1.4-0.3-2.2-1.6-2.2c-1.7,0-3,1.5-3,3.6l0,5.2h-2.6l0-12.9h-0.9V20h3.6V25.4z M107,35.4
		c-3.4,0-5.7-2.5-5.7-5.8c0-3.5,2.3-5.8,5.4-5.8c3.1,0,4.7,2.4,4.7,5.2c0,0.3-0.1,1.1-0.1,1.1H104c0.3,1.8,1.6,2.8,3.1,2.8
		c1.3,0,2.2-0.6,3.1-1.4l1.2,2.1c0,0-0.3,0.3-0.5,0.4C109.8,34.9,108.4,35.4,107,35.4z M106.7,26.1c-1.2,0-2.2,0.7-2.5,2h4.6
		C108.6,26.8,107.7,26.1,106.7,26.1z M129.6,39.8c-7.2,0-12.4-5.7-12.4-12.8c0-7.2,5.3-12.5,12.2-12.5c2.9,0,9.3,1.1,9.3,5.2v3.4
		h-4.1v-2.4c0-1.8-3.8-2.2-5-2.2c-4.6,0-7.9,3.4-7.9,8.4c0,5.2,3.5,8.9,8.1,8.9c5,0,7.3-3.4,7.3-3.4l2.1,3
		C139.1,35.3,136.5,39.8,129.6,39.8z M150.7,40.2c-5.2,0-9.4-3.9-9.4-9.4c0-5.4,4.2-9.3,9.4-9.3c5.2,0,9.4,3.9,9.4,9.3
		C160.1,36.2,155.9,40.2,150.7,40.2z M150.7,25.4c-2.8,0-5.1,2.2-5.1,5.4c0,3.2,2.3,5.4,5.1,5.4c2.7,0,5.1-2.2,5.1-5.4
		C155.8,27.6,153.5,25.4,150.7,25.4z M193.1,40.2c-5,0-9.4-3.5-9.4-9.3c0-5.5,4-9.4,9.2-9.4c2.5,0,7,1,7,4.4v1.9H196v-1
		c0-1-2.3-1.3-3-1.3c-3,0-5,2.1-5,5.4c0,3.5,2.3,5.4,5.2,5.4c2.4,0,3.7-1.1,5.4-2.5l1.7,3.4C198.3,39,195.9,40.2,193.1,40.2z
		 M210.9,40.2c-5.2,0-9.4-3.9-9.4-9.4c0-5.4,4.2-9.3,9.4-9.3c5.2,0,9.4,3.9,9.4,9.3C220.3,36.2,216.1,40.2,210.9,40.2z M210.9,25.4
		c-2.8,0-5.1,2.2-5.1,5.4c0,3.2,2.3,5.4,5.1,5.4c2.7,0,5.1-2.2,5.1-5.4C216,27.6,213.7,25.4,210.9,25.4z M248.4,23.2v-4.2h-2v-3.6
		h6.2V36c0,0.1,0,0.1,0,0.1c0,0,0.1,0,0.1,0h2.2v3.6h-3.8c-1.4,0-2.3-0.7-2.5-1.7c-1.3,1.4-3.1,2.1-5,2.1c-4.8,0-7.7-3.9-7.7-9.3
		c0-5.6,3.2-9.3,8-9.3C245.4,21.5,247.2,22.1,248.4,23.2z M244.4,25.5c-2.2,0-4.2,1.8-4.2,5.4c0,3.4,1.8,5.4,4.1,5.4
		c2.1,0,4.2-1.5,4.2-5.4C248.5,27.9,247,25.5,244.4,25.5z M122.1,50.5c1-1.2,2.8-2.5,5.4-2.5c3.9,0,5.6,2.3,5.6,6.5l0,6.6v0.4
		c0,0.1,0,0.1,0,0.1c0,0,0.1,0,0.1,0h2.3v3.4h-4c-1.4,0-2.5-0.7-2.5-2l0-0.9l0-7c0-2.2-0.4-3.4-2.3-3.4c-2.7,0-4.6,2.5-4.6,5.5V59
		v2.7v3.4h-4v-3.4v-2.1v-7.7c0-0.1,0-0.1,0-0.1c0,0-0.1,0-0.1,0h-2v-3.4h3.6C121.2,48.4,122.1,49.1,122.1,50.5z M106.5,65.5
		c-4.8,0-8.8-3.7-8.8-8.8c0-5.1,4-8.7,8.8-8.7c4.8,0,8.8,3.7,8.8,8.7C115.3,61.8,111.3,65.5,106.5,65.5z M106.5,51.7
		c-2.6,0-4.7,2.1-4.7,5c0,3,2.1,5.1,4.7,5.1c2.6,0,4.7-2.1,4.7-5.1C111.2,53.8,109,51.7,106.5,51.7z M142.6,65.5
		c-3.8,0-6.3-3.1-6.3-3.1l2.2-2.7c0,0,1.6,2.3,4.2,2.3c1.7,0,2.6-0.7,2.6-1.5c0-1.4-2.5-2-3.5-2.3c-2.2-0.8-5.1-2-5.1-5.3
		c0-3.6,3.5-4.9,6.2-4.9c2.1,0,5.8,0.9,5.8,3.7v1.7h-3.6v-0.8c0-0.4-0.7-1.1-2.2-1.1c-1.4,0-2.2,0.6-2.2,1.3c0,1.3,2.3,1.9,3.2,2.2
		c2.3,0.8,5.4,1.9,5.4,5.2C149.3,63.8,146.2,65.5,142.6,65.5z M160.3,65.5c-4.8,0-8.8-3.7-8.8-8.8c0-5.1,4-8.7,8.8-8.7
		s8.8,3.7,8.8,8.7C169.1,61.8,165.2,65.5,160.3,65.5z M160.3,51.7c-2.6,0-4.7,2.1-4.7,5c0,3,2.1,5.1,4.7,5.1c2.6,0,4.7-2.1,4.7-5.1
		C165.1,53.8,162.9,51.7,160.3,51.7z M176.8,51.5c0.5-1.2,2.5-3.3,4.3-3.3c0.4,0,1.3,0.1,1.3,0.1v4.1c0,0-1-0.2-1.4-0.2
		c-2.8,0-4.1,2.9-4.1,5.9l0,7h-4V51.9c0-0.1,0-0.1,0-0.1c0,0-0.1,0-0.1,0h-2.4v-3.4h4c1.4,0,2.5,0.7,2.5,2
		C176.8,50.6,176.8,51.4,176.8,51.5z M192,65.3c-2,0-6.4-0.7-6.4-6.4l0-7.1l-2.2,0v-3.4h2.2v-4.3h3.9l0,4.3h3.7v3.4l-3.7,0l0,6.8
		c0,2.7,1.7,3,2.7,3c0.4,0,1.2-0.1,1.2-0.1v3.6C193.6,65.1,192.7,65.3,192,65.3z M202.3,46.3h-4.1v-4.1h4.1V46.3z M204.2,65.1
		l-4.2,0c-1,0-1.8-0.8-1.8-2.5l0-10.8l-2.5,0v-3.4h4.1c2.3,0,2.4,1.7,2.4,2.5v10.8h2V65.1z M218.6,63.1c-1,1.2-2.7,2.4-5.3,2.4
		c-3.7,0-5.6-2.2-5.6-6.5v-7.2l-2.1,0v-3.4h4.1c1.2,0,2,1,2,1.9v8c0,2.1,0.4,3.4,2.3,3.4c2.6,0,4.4-2.6,4.4-5.6l0-7.8l4,0v13.2
		c0,0.1,0,0.1,0.1,0.1h1.9v3.4h-3.5C219.6,65.1,218.7,64.4,218.6,63.1z M232.6,50.5c1.2-1.4,2.9-2.5,4.9-2.5c2.3,0,3.9,0.9,4.7,2.9
		c1.1-1.6,3.1-2.9,5.4-2.9c3.8,0,5.5,2.3,5.5,6.5v7.2h1.9v3.4H249v-9.9c0-2.2-0.4-3.4-2.2-3.4c-2.4,0-4,2.6-4,5.6V60v5.1h-4v-9.9
		c0-2.1-0.3-3.4-2.1-3.4c-2.4,0-4.1,2.7-4.1,5.7l0,7.6h-4v-3.4v-1.8v-8c0-0.1,0-0.1,0-0.1c0,0-0.1,0-0.1,0h-2.4v-3.4h4
		C231.6,48.4,232.5,49.1,232.6,50.5z M86.8,65.4c-6.7,0-11.6-5.3-11.6-12c0-6.7,5-11.7,11.5-11.7c2.7,0,8.7,1,8.7,4.9v3.2h-3.9v-2.2
		c0-1.7-3.6-2.1-4.7-2.1c-4.3,0-7.4,3.2-7.4,7.8c0,4.9,3.2,8.3,7.6,8.3c4.7,0,6.8-3.2,6.8-3.2l2,2.8C95.8,61.2,93.3,65.4,86.8,65.4z
		"/>
</g>
</svg>
