<?xml version="1.0" encoding="UTF-8" standalone="no"?>
<!DOCTYPE svg PUBLIC "-//W3C//DTD SVG 1.1//EN" "http://www.w3.org/Graphics/SVG/1.1/DTD/svg11.dtd">
<svg width="100%" height="100%" version="1.1" xmlns="http://www.w3.org/2000/svg" xmlns:xlink="http://www.w3.org/1999/xlink" xml:space="preserve" style="fill-rule:evenodd;clip-rule:evenodd;stroke-linecap:round;stroke-linejoin:round;">
    <g id="golgi_x5F_apparatus">
        <path id="golgi_0_Layer0_0_FILL" d="M198.539,40.385C198.388,40.221 198.14,40.084 197.92,40.043C196.463,39.319 194.964,38.814 193.425,38.529C191.858,38.148 190.689,37.34 189.889,36.01C188.993,34.707 188.798,33.306 189.179,31.74C189.464,30.201 190.367,29.003 191.602,28.231C192.905,27.336 194.305,27.14 195.872,27.521C198.318,28.065 200.628,28.856 202.8,29.895C203.887,30.414 204.905,31.058 206.006,31.989C207.231,32.989 207.81,34.279 207.965,35.899C208.092,37.424 207.656,38.798 206.56,40.051C205.464,41.303 204.27,41.855 202.65,42.01C201.043,41.849 199.668,41.413 198.539,40.385M140.336,20.425C134.31,22.266 129.235,25.602 125.112,30.432C124.112,31.657 122.822,32.237 121.23,32.488C119.637,32.739 118.331,32.179 117.106,31.179C115.881,30.179 115.205,28.917 115.05,27.297C114.923,25.772 115.359,24.398 116.359,23.173C121.824,16.498 128.847,11.977 137.082,9.499C139.869,8.696 142.711,8.085 145.636,7.762C147.16,7.635 148.507,7.975 149.828,8.947C151.149,9.919 151.825,11.182 151.98,12.802C152.107,14.326 151.766,15.673 150.794,16.994C149.794,18.219 148.56,18.991 147.036,19.118C144.591,19.302 142.449,19.816 140.336,20.425M140.214,86.439C139.187,87.568 137.801,88.176 136.249,88.207C134.697,88.238 133.294,87.705 132.166,86.678C131.037,85.65 130.457,84.36 130.398,82.712C130.367,81.16 130.803,79.786 131.831,78.657C133.489,76.826 135.27,75.064 136.9,73.137C137.928,72.008 139.286,71.305 140.838,71.274C142.39,71.243 143.793,71.775 144.921,72.803C146.05,73.83 146.63,75.12 146.689,76.768C146.72,78.32 146.283,79.695 145.256,80.823C143.722,82.723 141.968,84.581 140.214,86.439M118.488,76.051C117.399,74.803 116.984,73.362 117.117,71.658C117.279,70.051 118.003,68.593 119.278,67.601C124.2,63.373 128.846,58.912 133.189,54.122C136.107,50.887 139.384,48.173 143.115,45.953L143.211,45.926C146.324,44.091 149.617,42.518 153.062,41.109C158.208,39.105 163.195,39.437 167.982,42.324C169.371,43.173 170.363,44.448 170.806,45.985C171.181,47.646 170.964,49.062 170.143,50.547C169.295,51.936 168.02,52.928 166.455,53.275C164.794,53.65 163.282,53.461 161.893,52.613C160.504,51.764 159.02,51.672 157.634,52.279C154.739,53.426 151.926,54.861 149.237,56.365C146.645,57.84 144.287,59.769 142.232,62.026C137.587,67.215 132.571,72.199 127.225,76.758C125.978,77.846 124.44,78.289 122.833,78.128C121.033,78.023 119.603,77.394 118.488,76.051M118.626,52.699C117.401,51.7 116.821,50.41 116.666,48.789C116.539,47.265 116.975,45.89 118.099,44.734C123.017,39.05 128.679,34.504 135.058,31C140.271,28.145 145.885,26.318 151.803,25.549L151.707,25.577C157.405,24.767 163.229,24.753 169.151,25.44C172.614,25.899 176.063,26.674 179.444,27.573C180.915,27.982 182.112,28.885 182.816,30.243C183.519,31.602 183.715,33.002 183.334,34.569C182.925,36.04 182.021,37.237 180.691,38.037C179.333,38.74 177.836,38.964 176.365,38.555C173.492,37.614 170.634,37.085 167.611,36.707C162.761,36.128 157.954,36.057 153.175,36.809C148.658,37.383 144.293,38.849 140.342,41.029C135.033,43.912 130.454,47.521 126.495,52.2C125.495,53.425 124.205,54.005 122.585,54.16C121.129,54.163 119.727,53.631 118.626,52.699M71.664,64.882C70.465,63.251 70.035,61.397 70.401,59.418C70.74,57.343 71.753,55.803 73.288,54.632C78.636,50.801 84.053,46.846 89.345,42.823C92.417,40.481 95.309,37.878 98.022,35.014C97.743,33.326 98.001,31.69 98.89,30.081C99.943,28.321 101.479,27.15 103.401,26.596C105.35,26.138 107.177,26.34 108.938,27.393C110.699,28.447 111.842,29.886 112.328,31.932C113.589,36.668 112.499,40.832 109.019,44.645C105.58,48.238 101.961,51.571 98.108,54.45C92.624,58.529 87.207,62.484 81.791,66.438C80.159,67.637 78.374,67.944 76.327,67.701C74.403,67.527 72.863,66.514 71.664,64.882M101.379,138.011C100.127,136.915 99.423,135.557 99.364,133.909C99.209,132.288 99.714,130.79 100.81,129.538C105.728,123.853 112.107,120.35 120.043,118.999L119.947,119.026C120.139,118.971 120.455,118.984 120.647,118.929C122.281,118.458 123.792,118.647 125.25,119.371C126.612,120.124 127.604,121.399 128.074,123.032C128.545,124.666 128.356,126.177 127.632,127.635C126.783,129.024 125.604,129.988 123.971,130.459C123.394,130.625 122.694,130.723 122.118,130.889C117.147,131.697 113.1,133.904 109.949,137.414C108.853,138.667 107.495,139.371 105.847,139.429C104.13,139.612 102.632,139.107 101.379,138.011M77.334,170.126C76.253,171.791 74.689,172.866 72.712,173.228C70.735,173.589 68.88,173.292 67.188,172.114C65.523,171.033 64.448,169.47 64.086,167.492C62.239,158.555 63.427,149.679 67.486,141.016C70.644,134.278 74.475,128.074 79.201,122.445L79.269,122.321C83.666,116.995 88.724,112.52 94.388,108.702L94.484,108.674C99.916,105.131 105.705,102.11 111.812,99.829C113.775,99.055 115.724,98.597 117.729,98.332C119.734,98.066 121.548,98.584 123.144,99.789C124.74,100.994 125.719,102.585 125.916,104.714C126.182,106.718 125.664,108.533 124.459,110.129C123.254,111.725 121.567,112.732 119.562,112.997C118.67,113.151 117.681,113.331 116.94,113.649C111.794,115.653 106.978,118.081 102.425,121.059C97.899,124.132 93.924,127.672 90.459,131.897C86.528,136.672 83.216,141.79 80.646,147.317C78.008,152.969 77.198,158.822 78.379,164.726C78.809,166.579 78.511,168.434 77.334,170.126M39.925,161.656C39.541,161.767 39.225,161.754 38.841,161.864C39.023,163.581 38.642,165.148 37.533,166.716C36.397,168.189 34.97,169.016 33.185,169.322C31.373,169.533 29.71,169.179 28.237,168.043C26.765,166.906 25.938,165.479 25.631,163.694C24.487,156.115 24.579,148.491 25.935,140.92C27.277,132.936 29.677,125.376 33.052,117.951C33.257,117.58 33.435,117.112 33.64,116.741C33.448,116.796 33.352,116.824 33.16,116.879C31.91,117.239 30.866,117.228 29.712,116.832C29.015,118.386 27.919,119.639 26.272,120.425C24.461,121.364 22.525,121.505 20.683,120.892C18.745,120.305 17.341,119.045 16.403,117.234C15.561,115.395 15.35,113.583 15.936,111.645C17.9,105.459 20.73,99.752 24.371,94.332C28.177,88.76 32.561,83.75 37.495,79.206C42.224,75.033 47.216,71.409 52.757,68.25C55.611,66.595 58.492,65.036 61.552,63.738C63.39,62.896 65.258,62.878 67.128,63.588C68.998,64.298 70.402,65.558 71.244,67.397C72.086,69.236 72.104,71.104 71.394,72.973C70.793,74.499 69.793,75.724 68.587,76.592C68.71,76.661 68.834,76.729 68.958,76.797C69.673,77.112 70.32,77.55 70.829,78.235C74.176,76.126 77.73,74.373 81.49,72.977L81.586,72.95C83.384,72.327 85.154,71.609 86.924,70.891C91.234,69.232 95.157,66.957 98.542,63.9C99.858,62.688 101.298,61.544 102.669,60.525C104.109,59.381 105.424,58.17 106.465,56.725L106.533,56.601C107.67,55.129 109.178,53.861 110.989,52.923C112.608,52.04 114.324,51.858 116.043,52.403C117.761,52.949 119.109,54.017 119.992,55.636C120.875,57.255 121.058,58.971 120.512,60.689C119.967,62.408 118.802,63.784 117.184,64.667C117.088,64.694 117.019,64.818 116.923,64.846C115.184,67.116 113.169,69.154 110.852,70.862C109.645,71.731 108.562,72.667 107.411,73.728C106.328,74.664 105.314,75.477 104.107,76.345C104.698,76.591 105.221,76.961 105.771,77.426C105.895,77.495 106.047,77.659 106.198,77.824C106.76,77.245 107.198,76.599 107.608,75.856C108.457,74.467 109.76,73.571 111.325,73.224C112.986,72.849 114.401,73.066 115.818,74.01C117.207,74.859 118.103,76.161 118.45,77.726C118.825,79.388 118.512,80.831 117.664,82.22C115.871,85.026 113.651,87.435 111.17,89.295L111.266,89.267C104.341,94.489 96.604,98.697 88.398,101.999C82.51,104.32 77.312,107.587 72.583,111.76L72.679,111.733C70.184,113.909 67.717,116.181 65.222,118.357L65.25,118.453C62.55,121 60.661,123.834 59.57,127.271C59.093,128.865 58.189,130.062 56.735,130.794C55.281,131.525 53.784,131.748 52.19,131.271C50.595,130.794 49.398,129.89 48.543,128.368C47.811,126.914 47.588,125.417 48.065,123.822C48.979,120.853 50.263,118.089 52.016,115.503C51.26,115.409 50.573,115.19 49.83,114.78C48.009,117.49 46.532,120.31 45.179,123.197C43.895,125.961 42.734,128.793 41.889,131.639C42.947,132.062 43.801,132.857 44.49,133.803C44.558,133.679 44.75,133.624 44.942,133.568C46.574,132.369 48.427,131.939 50.406,132.306C52.385,132.672 54.022,133.657 55.097,135.22C56.296,136.852 56.726,138.706 56.387,140.78C55.235,147.253 54.742,153.847 54.757,160.399C55.187,162.252 54.93,163.887 54.041,165.497C52.987,167.257 51.548,168.401 49.626,168.955C47.704,169.508 45.877,169.307 44.048,168.377C42.191,167.351 41.144,165.884 40.59,163.962C40.108,163.372 39.982,162.576 39.925,161.656M23.166,155.143C23.774,156.529 23.873,157.957 23.273,159.483C22.768,160.981 21.713,162.014 20.327,162.622C18.941,163.229 17.512,163.329 15.986,162.728C14.488,162.223 13.455,161.168 12.848,159.782C12.296,158.588 11.603,156.186 10.771,152.576C9.801,149.213 10.346,141.354 12.529,129.07C12.814,127.53 13.622,126.361 14.897,125.369C16.2,124.473 17.545,124.086 19.084,124.37C20.623,124.655 21.793,125.463 22.784,126.738C23.68,128.041 23.972,129.414 23.687,130.953C21.979,140.915 21.335,147.345 21.822,150.119C22.295,152.48 22.793,154.21 23.166,155.143M47.628,189.824C46.636,188.549 46.289,186.984 46.45,185.376C46.463,185.06 46.352,184.676 46.214,184.195C45.455,182.645 45.451,181.189 46.024,179.567C46.625,178.041 47.653,176.912 49.203,176.153C50.658,175.422 52.21,175.391 53.736,175.991C55.262,176.592 56.39,177.62 57.026,179.102C58.213,181.778 58.645,184.359 58.253,186.97C57.996,188.605 57.216,189.87 55.94,190.862C54.665,191.854 53.1,192.201 51.493,192.04C49.913,191.975 48.62,191.099 47.628,189.824M37.78,196.096C35.858,196.65 34.031,196.449 32.202,195.519C30.345,194.493 29.298,193.026 28.744,191.104C28.44,190.047 28.259,189.058 28.242,187.918L28.27,188.014C28.167,185.13 27.996,182.37 27.536,179.692C27.271,177.687 27.692,175.901 28.897,174.305C30.075,172.612 31.694,171.73 33.671,171.368C35.648,171.006 37.462,171.524 39.154,172.701C40.751,173.906 41.729,175.497 41.995,177.502C42.469,180.592 42.711,183.956 42.856,187.349C43.286,189.202 43.056,190.933 42.167,192.542C41.21,194.275 39.702,195.543 37.78,196.096M70.114,201.763C68.575,201.478 67.377,200.574 66.605,199.34C65.71,198.037 65.514,196.636 65.799,195.097C65.949,194.534 65.975,193.902 66.248,193.407L66.317,193.283C67.202,190.218 67.332,187.058 66.638,183.928C66.319,182.459 66.508,180.948 67.384,179.655C68.136,178.293 69.371,177.521 70.936,177.174C72.405,176.855 73.916,177.043 75.209,177.919C76.571,178.672 77.343,179.906 77.69,181.471C78.814,186.455 78.578,191.414 77.134,196.513L77.162,196.609C77.053,196.953 77.012,197.173 76.903,197.517C76.618,199.056 75.714,200.253 74.508,201.121C73.026,201.756 71.653,202.048 70.114,201.763M48.233,237.417C46.722,237.228 45.608,236.613 44.643,235.434C43.803,234.323 43.415,232.978 43.508,231.494C43.684,230.299 43.736,229.035 43.939,227.935C44.87,220.694 44.689,213.566 43.299,206.578C42.979,205.109 43.224,203.79 44.127,202.592C44.907,201.327 46.046,200.583 47.515,200.263C48.984,199.944 50.303,200.188 51.596,201.064C52.766,201.872 53.606,202.983 53.925,204.452C55.579,212.717 55.901,221.053 54.794,229.49L54.726,229.614C54.522,230.713 54.415,231.785 54.307,232.856C54.091,234.271 53.503,235.482 52.324,236.446C50.966,237.15 49.717,237.51 48.233,237.417M64.579,231.665C62.971,231.504 61.734,230.82 60.742,229.545C59.75,228.27 59.362,226.924 59.551,225.413C59.834,223.146 60.021,220.907 60.208,218.667C60.369,217.06 61.053,215.822 62.232,214.858C63.411,213.893 64.825,213.382 66.336,213.571C67.944,213.732 69.181,214.416 70.173,215.691C71.165,216.966 71.649,218.283 71.46,219.795C71.177,222.062 71.018,224.397 70.762,226.761C70.601,228.368 69.917,229.606 68.642,230.598C67.532,231.438 66.09,231.854 64.579,231.665Z" style="fill:rgb(200,200,200);fill-rule:nonzero;"/>
        <path id="golgi_0_Layer0_0_1_STROKES" d="M59.551,225.413C59.834,223.146 60.021,220.907 60.208,218.667C60.369,217.06 61.053,215.822 62.232,214.858C63.411,213.893 64.825,213.382 66.336,213.571C67.944,213.732 69.181,214.416 70.173,215.691C71.165,216.966 71.649,218.283 71.46,219.795C71.177,222.062 71.018,224.397 70.762,226.761C70.601,228.368 69.917,229.606 68.642,230.598C67.367,231.59 66.022,231.977 64.51,231.789C62.903,231.627 61.665,230.944 60.673,229.668C59.777,228.366 59.362,226.924 59.551,225.413ZM44.035,227.908C44.966,220.667 44.785,213.538 43.395,206.55C43.076,205.081 43.32,203.762 44.224,202.565C45.004,201.299 46.142,200.555 47.611,200.236C49.08,199.916 50.399,200.16 51.692,201.036C52.862,201.844 53.702,202.955 54.021,204.424C55.675,212.689 55.997,221.026 54.89,229.462L54.822,229.586C54.618,230.685 54.511,231.757 54.403,232.829C54.187,234.244 53.599,235.454 52.42,236.418C51.309,237.259 49.964,237.646 48.48,237.554C46.969,237.365 45.855,236.749 44.891,235.57C44.05,234.46 43.663,233.114 43.755,231.631C43.656,230.202 43.763,229.131 44.035,227.908ZM66.193,193.215C67.079,190.149 67.209,186.99 66.514,183.86C66.195,182.391 66.384,180.879 67.26,179.586C68.012,178.225 69.247,177.453 70.812,177.106C72.281,176.786 73.792,176.975 75.085,177.851C76.447,178.603 77.219,179.838 77.566,181.403C78.69,186.386 78.455,191.346 77.01,196.445L77.038,196.541C76.929,196.885 76.888,197.104 76.779,197.448C76.494,198.987 75.591,200.184 74.384,201.052C73.177,201.921 71.68,202.144 70.114,201.763C68.575,201.478 67.377,200.574 66.605,199.34C65.71,198.037 65.514,196.636 65.799,195.097C65.949,194.534 65.975,193.902 66.248,193.407C66.124,193.338 66.097,193.242 66.193,193.215ZM28.27,188.014C28.167,185.13 27.996,182.37 27.536,179.692C27.271,177.687 27.692,175.901 28.897,174.305C30.075,172.612 31.694,171.73 33.671,171.368C35.675,171.102 37.462,171.524 39.154,172.701C40.751,173.906 41.729,175.497 41.995,177.502C42.469,180.592 42.711,183.956 42.856,187.349C43.286,189.202 43.056,190.933 42.167,192.542C41.114,194.303 39.674,195.446 37.752,196C35.831,196.554 34.003,196.352 32.174,195.423C30.318,194.397 29.27,192.93 28.716,191.008C28.412,189.951 28.231,188.962 28.215,187.822L28.27,188.014ZM46.546,185.348C46.559,185.032 46.448,184.648 46.31,184.168C45.551,182.617 45.547,181.161 46.121,179.539C46.721,178.013 47.749,176.884 49.299,176.125C50.754,175.394 52.306,175.363 53.832,175.964C55.358,176.565 56.487,177.592 57.122,179.074C58.309,181.75 58.741,184.331 58.349,186.942C58.092,188.577 57.312,189.843 56.037,190.834C54.761,191.826 53.196,192.173 51.589,192.012C49.954,191.755 48.592,191.003 47.6,189.728C46.636,188.549 46.193,187.011 46.546,185.348ZM10.647,152.507C9.678,149.144 10.223,141.286 12.405,129.001C12.69,127.462 13.498,126.293 14.773,125.301C16.076,124.405 17.421,124.017 18.96,124.302C20.499,124.587 21.669,125.395 22.661,126.67C23.557,127.973 23.848,129.345 23.563,130.885C21.856,140.847 21.211,147.277 21.699,150.05C22.323,152.576 22.697,154.237 23.07,155.171C23.678,156.556 23.777,157.985 23.176,159.511C22.672,161.009 21.616,162.042 20.231,162.649C18.845,163.257 17.416,163.356 15.89,162.756C14.392,162.251 13.359,161.196 12.752,159.81C12.172,158.52 11.452,156.022 10.647,152.507ZM33.036,116.811C31.787,117.171 30.743,117.16 29.588,116.764C28.891,118.318 27.795,119.57 26.149,120.357C24.338,121.295 22.401,121.437 20.559,120.823C18.621,120.237 17.217,118.977 16.279,117.166C15.437,115.327 15.227,113.514 15.813,111.576C17.776,105.391 20.606,99.684 24.247,94.263C28.053,88.692 32.437,83.682 37.371,79.137C42.1,74.964 47.092,71.34 52.634,68.182C55.487,66.527 58.368,64.968 61.428,63.67C63.266,62.828 65.134,62.81 67.004,63.52C68.874,64.229 70.278,65.49 71.12,67.329C71.962,69.167 71.98,71.035 71.27,72.905C70.67,74.431 69.67,75.656 68.463,76.524C68.587,76.592 68.71,76.661 68.834,76.729C69.549,77.043 70.196,77.481 70.706,78.167C74.052,76.058 77.606,74.305 81.366,72.909L81.462,72.881C83.26,72.259 85.03,71.541 86.801,70.822C91.11,69.164 95.033,66.888 98.419,63.831C99.734,62.619 101.174,61.476 102.545,60.456C103.985,59.313 105.301,58.101 106.341,56.656L106.41,56.533C107.546,55.06 109.054,53.793 110.865,52.855C112.484,51.972 114.201,51.789 115.919,52.335C117.637,52.88 118.986,53.949 119.868,55.567C120.751,57.186 120.934,58.903 120.388,60.621C119.843,62.339 118.679,63.715 117.06,64.598C116.964,64.626 116.895,64.75 116.799,64.777C115.06,67.048 113.046,69.085 110.728,70.794C109.522,71.662 108.439,72.599 107.287,73.659C106.204,74.596 105.19,75.408 103.983,76.277C104.574,76.522 105.097,76.892 105.648,77.358C105.771,77.426 105.923,77.591 106.074,77.755C106.636,77.177 107.074,76.53 107.485,75.788C108.333,74.398 109.636,73.503 111.201,73.156C112.862,72.781 114.277,72.997 115.694,73.942C117.084,74.79 117.979,76.093 118.326,77.658C118.701,79.319 118.389,80.762 117.54,82.152C115.747,84.958 113.528,87.367 111.046,89.227L111.142,89.199C104.218,94.421 96.48,98.628 88.274,101.93C82.387,104.252 77.188,107.519 72.459,111.692L72.555,111.664C70.061,113.84 67.593,116.112 65.098,118.288L65.126,118.385C62.426,120.932 60.537,123.766 59.446,127.202C58.969,128.797 58.065,129.994 56.611,130.725C55.157,131.457 53.66,131.68 52.066,131.203C50.471,130.726 49.274,129.822 48.419,128.299C47.688,126.845 47.464,125.348 47.941,123.754C48.855,120.785 50.14,118.021 51.892,115.435C51.136,115.34 50.449,115.122 49.706,114.712C47.886,117.422 46.409,120.241 45.056,123.129C43.771,125.893 42.61,128.725 41.765,131.57C42.823,131.994 43.677,132.788 44.366,133.734C44.434,133.611 44.626,133.555 44.819,133.5C46.45,132.301 48.304,131.871 50.283,132.237C52.261,132.604 53.898,133.589 54.973,135.152C56.172,136.784 56.602,138.637 56.264,140.712C55.111,147.184 54.618,153.779 54.633,160.331C55.063,162.184 54.806,163.819 53.917,165.428C52.864,167.189 51.424,168.332 49.502,168.886C47.581,169.44 45.753,169.238 43.924,168.308C42.067,167.283 41.02,165.815 40.466,163.894C40.217,163.029 40.064,162.136 40.007,161.216C39.622,161.327 39.306,161.314 38.922,161.425C39.105,163.141 38.724,164.708 37.615,166.276C36.478,167.749 35.052,168.576 33.267,168.883C31.454,169.093 29.791,168.74 28.319,167.603C26.846,166.466 26.019,165.04 25.713,163.255C24.569,155.675 24.661,148.052 26.017,140.48C27.51,132.661 29.882,125.005 33.285,117.676C33.49,117.304 33.668,116.837 33.873,116.465C33.324,116.728 33.132,116.783 33.036,116.811ZM80.742,147.29C78.104,152.941 77.294,158.794 78.475,164.698C78.837,166.675 78.443,168.558 77.362,170.222C76.28,171.887 74.717,172.962 72.74,173.324C70.763,173.685 68.908,173.388 67.215,172.21C65.551,171.129 64.476,169.566 64.114,167.588C62.267,158.651 63.455,149.775 67.514,141.112C70.671,134.374 74.503,128.17 79.229,122.541L79.297,122.417C83.694,117.092 88.752,112.616 94.416,108.798L94.512,108.77C99.943,105.227 105.733,102.206 111.84,99.925C113.802,99.151 115.752,98.694 117.757,98.428C119.761,98.162 121.576,98.68 123.172,99.885C124.768,101.09 125.747,102.681 125.944,104.81C126.21,106.815 125.692,108.629 124.487,110.225C123.282,111.821 121.595,112.828 119.59,113.093C118.698,113.247 117.709,113.427 116.968,113.745C111.822,115.749 107.006,118.177 102.453,121.155C97.927,124.229 93.952,127.768 90.487,131.993C86.596,136.548 83.312,141.762 80.742,147.29ZM121.994,130.821C117.023,131.629 112.976,133.836 109.825,137.346C108.729,138.599 107.371,139.302 105.723,139.361C104.102,139.516 102.604,139.011 101.352,137.915C100.099,136.819 99.395,135.461 99.337,133.813C99.182,132.192 99.687,130.694 100.782,129.441C105.7,123.757 112.079,120.253 119.919,118.93L119.823,118.958C120.016,118.903 120.332,118.916 120.524,118.86C122.157,118.389 123.669,118.578 125.126,119.303C126.488,120.055 127.48,121.33 127.951,122.964C128.421,124.597 128.233,126.109 127.508,127.566C126.66,128.956 125.481,129.92 123.847,130.391C123.202,130.681 122.598,130.751 121.994,130.821ZM98.26,54.615C92.775,58.693 87.359,62.648 81.942,66.603C80.31,67.802 78.525,68.108 76.478,67.866C74.499,67.499 72.863,66.514 71.76,64.855C70.561,63.223 70.131,61.369 70.497,59.391C70.836,57.316 71.849,55.775 73.384,54.604C78.732,50.773 84.149,46.818 89.442,42.795C92.513,40.453 95.405,37.85 98.118,34.987C97.84,33.298 98.097,31.663 98.986,30.054C100.039,28.293 101.575,27.122 103.497,26.568C105.446,26.11 107.274,26.312 109.034,27.366C110.795,28.419 111.938,29.859 112.424,31.904C113.685,36.64 112.595,40.805 109.115,44.617C105.731,48.403 102.085,51.639 98.26,54.615ZM140.438,41.001C135.129,43.884 130.55,47.493 126.591,52.173C125.591,53.398 124.301,53.977 122.681,54.132C121.157,54.259 119.782,53.823 118.53,52.727C117.305,51.727 116.725,50.437 116.57,48.817C116.443,47.293 116.879,45.918 118.003,44.762C122.921,39.077 128.583,34.531 134.962,31.028C140.175,28.172 145.789,26.346 151.707,25.577L151.611,25.605C157.309,24.795 163.133,24.781 169.055,25.468C172.518,25.927 175.967,26.702 179.348,27.601C180.819,28.009 182.016,28.913 182.72,30.271C183.423,31.629 183.619,33.03 183.238,34.597C182.829,36.067 181.925,37.265 180.595,38.064C179.237,38.768 177.74,38.991 176.269,38.583C173.396,37.641 170.538,37.112 167.611,36.707C162.761,36.128 157.954,36.057 153.175,36.809C148.781,37.451 144.389,38.821 140.438,41.001ZM142.163,62.15C137.519,67.339 132.503,72.323 127.157,76.882C125.909,77.97 124.372,78.413 122.764,78.252C121.157,78.091 119.699,77.366 118.707,76.091C117.619,74.844 117.204,73.403 117.337,71.699C117.498,70.092 118.223,68.634 119.498,67.642C124.42,63.414 129.066,58.952 133.409,54.162C136.327,50.928 139.603,48.214 143.334,45.994L143.431,45.966C146.544,44.132 149.837,42.559 153.282,41.15C158.428,39.146 163.415,39.478 168.201,42.365C169.591,43.213 170.583,44.488 171.026,46.026C171.401,47.687 171.184,49.102 170.363,50.588C169.515,51.977 168.24,52.969 166.675,53.316C165.014,53.691 163.502,53.502 162.113,52.653C160.724,51.805 159.24,51.712 157.854,52.32C154.959,53.467 152.146,54.902 149.457,56.405C146.357,57.923 144.095,59.824 142.163,62.15ZM131.955,78.725C133.613,76.895 135.394,75.132 137.024,73.205C138.052,72.077 139.41,71.373 140.962,71.342C142.514,71.311 143.916,71.843 145.045,72.871C146.174,73.898 146.754,75.188 146.813,76.836C146.844,78.389 146.407,79.763 145.38,80.892C143.722,82.723 141.968,84.581 140.214,86.439C139.187,87.568 137.801,88.176 136.249,88.207C134.697,88.238 133.294,87.705 132.166,86.678C131.037,85.65 130.457,84.36 130.398,82.712C130.367,81.16 130.927,79.854 131.955,78.725ZM140.336,20.425C134.31,22.266 129.235,25.602 125.112,30.432C124.112,31.657 122.822,32.237 121.23,32.488C119.637,32.739 118.331,32.179 117.106,31.179C115.881,30.179 115.205,28.917 115.05,27.297C114.923,25.772 115.359,24.398 116.359,23.173C121.824,16.498 128.847,11.977 137.082,9.499C139.869,8.696 142.711,8.085 145.636,7.762C147.16,7.635 148.507,7.975 149.828,8.947C151.149,9.919 151.825,11.182 151.98,12.802C152.107,14.326 151.766,15.673 150.794,16.994C149.794,18.219 148.56,18.991 147.036,19.118C144.591,19.302 142.449,19.816 140.336,20.425ZM198.016,40.016C196.559,39.291 195.06,38.786 193.521,38.501C191.955,38.12 190.785,37.313 189.985,35.982C189.089,34.679 188.894,33.279 189.275,31.712C189.56,30.173 190.464,28.976 191.698,28.204C193.001,27.308 194.401,27.112 195.968,27.493C198.414,28.037 200.724,28.828 202.897,29.867C203.983,30.387 205.001,31.03 206.102,31.961C207.327,32.961 207.907,34.251 208.061,35.871C208.189,37.396 207.752,38.77 206.656,40.023C205.56,41.275 204.367,41.828 202.746,41.983C201.222,42.11 199.847,41.673 198.595,40.577C198.388,40.221 198.14,40.084 198.016,40.016Z" style="fill:none;stroke:rgb(169,153,106);stroke-width:3px;"/>
    </g>
    <g id="microtubules_x5F_grouped">
        <path d="M228,91C258.95,77.153 331.005,43.179 361,75C386.135,101.665 367.869,119.694 388,133C412.866,149.436 445.501,78.496 496,93" style="fill:none;stroke:rgb(185,158,14);stroke-width:1px;stroke-miterlimit:1.5;"/>
        <path d="M242,166C242,166 321.283,202.846 396,176C470.717,149.154 549.241,144.879 519,203C488.759,261.121 546.686,225.249 560,226" style="fill:none;stroke:rgb(185,158,14);stroke-width:1px;stroke-miterlimit:1.5;"/>
        <path d="M153,231C153,231 277.672,215.037 342,233C389.244,246.193 395.414,284.506 431,283" style="fill:none;stroke:rgb(185,158,14);stroke-width:1px;stroke-miterlimit:1.5;"/>
    </g>
</svg>
