<?xml version="1.0" encoding="UTF-8" standalone="no"?>
<!DOCTYPE svg PUBLIC "-//W3C//DTD SVG 1.1//EN" "http://www.w3.org/Graphics/SVG/1.1/DTD/svg11.dtd">
<svg version="1.1" xmlns="http://www.w3.org/2000/svg" xmlns:xlink="http://www.w3.org/1999/xlink" xml:space="preserve" style="fill-rule:evenodd;clip-rule:evenodd;stroke-linecap:round;stroke-linejoin:round;">
    <g id="golgi_x5F_apparatus">
        <path id="golgi_0_Layer0_0_FILL" d="M189.853,34.149C189.702,33.985 189.454,33.848 189.234,33.807C187.777,33.083 186.278,32.578 184.739,32.293C183.172,31.912 182.003,31.104 181.203,29.774C180.307,28.471 180.112,27.07 180.493,25.504C180.778,23.965 181.681,22.767 182.916,21.995C184.219,21.1 185.619,20.904 187.186,21.285C189.632,21.829 191.942,22.62 194.114,23.659C195.201,24.178 196.219,24.822 197.32,25.753C198.545,26.753 199.124,28.043 199.279,29.663C199.406,31.188 198.97,32.562 197.874,33.815C196.778,35.067 195.584,35.619 193.964,35.774C192.357,35.613 190.982,35.177 189.853,34.149M131.65,14.189C125.624,16.03 120.549,19.366 116.426,24.196C115.426,25.421 114.136,26.001 112.544,26.252C110.951,26.503 109.645,25.943 108.42,24.943C107.195,23.943 106.519,22.681 106.364,21.061C106.237,19.536 106.673,18.162 107.673,16.937C113.138,10.262 120.161,5.741 128.396,3.263C131.183,2.46 134.025,1.849 136.95,1.526C138.474,1.399 139.821,1.739 141.142,2.711C142.463,3.683 143.139,4.946 143.294,6.566C143.421,8.09 143.08,9.437 142.108,10.758C141.108,11.983 139.874,12.755 138.35,12.882C135.905,13.066 133.763,13.58 131.65,14.189M131.528,80.203C130.501,81.332 129.115,81.94 127.563,81.971C126.011,82.002 124.608,81.469 123.48,80.442C122.351,79.414 121.771,78.124 121.712,76.476C121.681,74.924 122.117,73.55 123.145,72.421C124.803,70.59 126.584,68.828 128.214,66.901C129.242,65.772 130.6,65.069 132.152,65.038C133.704,65.007 135.107,65.539 136.235,66.567C137.364,67.594 137.944,68.884 138.003,70.532C138.034,72.084 137.597,73.459 136.57,74.587C135.036,76.487 133.282,78.345 131.528,80.203M109.802,69.815C108.713,68.567 108.298,67.126 108.431,65.422C108.593,63.815 109.317,62.357 110.592,61.365C115.514,57.137 120.16,52.676 124.503,47.886C127.421,44.651 130.698,41.937 134.429,39.717L134.525,39.69C137.638,37.855 140.931,36.282 144.376,34.873C149.522,32.869 154.509,33.201 159.296,36.088C160.685,36.937 161.677,38.212 162.12,39.749C162.495,41.41 162.278,42.826 161.457,44.311C160.609,45.7 159.334,46.692 157.769,47.039C156.108,47.414 154.596,47.225 153.207,46.377C151.818,45.528 150.334,45.436 148.948,46.043C146.053,47.19 143.24,48.625 140.551,50.129C137.959,51.604 135.601,53.533 133.546,55.79C128.901,60.979 123.885,65.963 118.539,70.522C117.292,71.61 115.754,72.053 114.147,71.892C112.347,71.787 110.917,71.158 109.802,69.815M109.94,46.463C108.715,45.464 108.135,44.174 107.98,42.553C107.853,41.029 108.289,39.654 109.413,38.498C114.331,32.814 119.993,28.268 126.372,24.764C131.585,21.909 137.199,20.082 143.117,19.313L143.021,19.341C148.719,18.531 154.543,18.517 160.465,19.204C163.928,19.663 167.377,20.438 170.758,21.337C172.229,21.746 173.426,22.649 174.13,24.007C174.833,25.366 175.029,26.766 174.648,28.333C174.239,29.804 173.335,31.001 172.005,31.801C170.647,32.504 169.15,32.728 167.679,32.319C164.806,31.378 161.948,30.849 158.925,30.471C154.075,29.892 149.268,29.821 144.489,30.573C139.972,31.147 135.607,32.613 131.656,34.793C126.347,37.676 121.768,41.285 117.809,45.964C116.809,47.189 115.519,47.769 113.899,47.924C112.443,47.927 111.041,47.395 109.94,46.463M62.978,58.646C61.779,57.015 61.349,55.161 61.715,53.182C62.054,51.107 63.067,49.567 64.602,48.396C69.95,44.565 75.367,40.61 80.659,36.587C83.731,34.245 86.623,31.642 89.336,28.778C89.057,27.09 89.315,25.454 90.204,23.845C91.257,22.085 92.793,20.914 94.715,20.36C96.664,19.902 98.491,20.104 100.252,21.157C102.013,22.211 103.156,23.65 103.642,25.696C104.903,30.432 103.813,34.596 100.333,38.409C96.894,42.002 93.275,45.335 89.422,48.214C83.938,52.293 78.521,56.248 73.105,60.202C71.473,61.401 69.688,61.708 67.641,61.465C65.717,61.291 64.177,60.278 62.978,58.646M92.693,131.775C91.441,130.679 90.737,129.321 90.678,127.673C90.523,126.052 91.028,124.554 92.124,123.302C97.042,117.617 103.421,114.114 111.357,112.763L111.261,112.79C111.453,112.735 111.769,112.748 111.961,112.693C113.595,112.222 115.106,112.411 116.564,113.135C117.926,113.888 118.918,115.163 119.388,116.796C119.859,118.43 119.67,119.941 118.946,121.399C118.097,122.788 116.918,123.752 115.285,124.223C114.708,124.389 114.008,124.487 113.432,124.653C108.461,125.461 104.414,127.668 101.263,131.178C100.167,132.431 98.809,133.135 97.161,133.193C95.444,133.376 93.946,132.871 92.693,131.775M68.648,163.89C67.567,165.555 66.003,166.63 64.026,166.992C62.049,167.353 60.194,167.056 58.502,165.878C56.837,164.797 55.762,163.234 55.4,161.256C53.553,152.319 54.741,143.443 58.8,134.78C61.958,128.042 65.789,121.838 70.515,116.209L70.583,116.085C74.98,110.759 80.038,106.284 85.702,102.466L85.798,102.438C91.23,98.895 97.019,95.874 103.126,93.593C105.089,92.819 107.038,92.361 109.043,92.096C111.048,91.83 112.862,92.348 114.458,93.553C116.054,94.758 117.033,96.349 117.23,98.478C117.496,100.482 116.978,102.297 115.773,103.893C114.568,105.489 112.881,106.496 110.876,106.761C109.984,106.915 108.995,107.095 108.254,107.413C103.108,109.417 98.292,111.845 93.739,114.823C89.213,117.896 85.238,121.436 81.773,125.661C77.842,130.436 74.53,135.554 71.96,141.081C69.322,146.733 68.512,152.586 69.693,158.49C70.123,160.343 69.825,162.198 68.648,163.89M31.239,155.42C30.855,155.531 30.539,155.518 30.155,155.628C30.337,157.345 29.956,158.912 28.847,160.48C27.711,161.953 26.284,162.78 24.499,163.086C22.687,163.297 21.024,162.943 19.551,161.807C18.079,160.67 17.252,159.243 16.945,157.458C15.801,149.879 15.893,142.255 17.249,134.684C18.591,126.7 20.991,119.14 24.366,111.715C24.571,111.344 24.749,110.876 24.954,110.505C24.762,110.56 24.666,110.588 24.474,110.643C23.224,111.003 22.18,110.992 21.026,110.596C20.329,112.15 19.233,113.403 17.586,114.189C15.775,115.128 13.839,115.269 11.997,114.656C10.059,114.069 8.655,112.809 7.717,110.998C6.875,109.159 6.664,107.347 7.25,105.409C9.214,99.223 12.044,93.516 15.685,88.096C19.491,82.524 23.875,77.514 28.809,72.97C33.538,68.797 38.53,65.173 44.071,62.014C46.925,60.359 49.806,58.8 52.866,57.502C54.704,56.66 56.572,56.642 58.442,57.352C60.312,58.062 61.716,59.322 62.558,61.161C63.4,63 63.418,64.868 62.708,66.737C62.107,68.263 61.107,69.488 59.901,70.356C60.024,70.425 60.148,70.493 60.272,70.561C60.987,70.876 61.634,71.314 62.143,71.999C65.49,69.89 69.044,68.137 72.804,66.741L72.9,66.714C74.698,66.091 76.468,65.373 78.238,64.655C82.548,62.996 86.471,60.721 89.856,57.664C91.172,56.452 92.612,55.308 93.983,54.289C95.423,53.145 96.738,51.934 97.779,50.489L97.847,50.365C98.984,48.893 100.492,47.625 102.303,46.687C103.922,45.804 105.638,45.622 107.357,46.167C109.075,46.713 110.423,47.781 111.306,49.4C112.189,51.019 112.372,52.735 111.826,54.453C111.281,56.172 110.116,57.548 108.498,58.431C108.402,58.458 108.333,58.582 108.237,58.61C106.498,60.88 104.483,62.918 102.166,64.626C100.959,65.495 99.876,66.431 98.725,67.492C97.642,68.428 96.628,69.241 95.421,70.109C96.012,70.355 96.535,70.725 97.085,71.19C97.209,71.259 97.361,71.423 97.512,71.588C98.074,71.009 98.512,70.363 98.922,69.62C99.771,68.231 101.074,67.335 102.639,66.988C104.3,66.613 105.715,66.83 107.132,67.774C108.521,68.623 109.417,69.925 109.764,71.49C110.139,73.152 109.826,74.595 108.978,75.984C107.185,78.79 104.965,81.199 102.484,83.059L102.58,83.031C95.655,88.253 87.918,92.461 79.712,95.763C73.824,98.084 68.626,101.351 63.897,105.524L63.993,105.497C61.498,107.673 59.031,109.945 56.536,112.121L56.564,112.217C53.864,114.764 51.975,117.598 50.884,121.035C50.407,122.629 49.503,123.826 48.049,124.558C46.595,125.289 45.098,125.512 43.504,125.035C41.909,124.558 40.712,123.654 39.857,122.132C39.125,120.678 38.902,119.181 39.379,117.586C40.293,114.617 41.577,111.853 43.33,109.267C42.574,109.173 41.887,108.954 41.144,108.544C39.323,111.254 37.846,114.074 36.493,116.961C35.209,119.725 34.048,122.557 33.203,125.403C34.261,125.826 35.115,126.621 35.804,127.567C35.872,127.443 36.064,127.388 36.256,127.332C37.888,126.133 39.741,125.703 41.72,126.07C43.699,126.436 45.336,127.421 46.411,128.984C47.61,130.616 48.04,132.47 47.701,134.544C46.549,141.017 46.056,147.611 46.071,154.163C46.501,156.016 46.244,157.651 45.355,159.261C44.301,161.021 42.862,162.165 40.94,162.719C39.018,163.272 37.191,163.071 35.362,162.141C33.505,161.115 32.458,159.648 31.904,157.726C31.422,157.136 31.296,156.34 31.239,155.42M14.48,148.907C15.088,150.293 15.187,151.721 14.587,153.247C14.082,154.745 13.027,155.778 11.641,156.386C10.255,156.993 8.826,157.093 7.3,156.492C5.802,155.987 4.769,154.932 4.162,153.546C3.61,152.352 2.917,149.95 2.085,146.34C1.115,142.977 1.66,135.118 3.843,122.834C4.128,121.294 4.936,120.125 6.211,119.133C7.514,118.237 8.859,117.85 10.398,118.134C11.937,118.419 13.107,119.227 14.098,120.502C14.994,121.805 15.286,123.178 15.001,124.717C13.293,134.679 12.649,141.109 13.136,143.883C13.609,146.244 14.107,147.974 14.48,148.907M38.942,183.588C37.95,182.313 37.603,180.748 37.764,179.14C37.777,178.824 37.666,178.44 37.528,177.959C36.769,176.409 36.765,174.953 37.338,173.331C37.939,171.805 38.967,170.676 40.517,169.917C41.972,169.186 43.524,169.155 45.05,169.755C46.576,170.356 47.704,171.384 48.34,172.866C49.527,175.542 49.959,178.123 49.567,180.734C49.31,182.369 48.53,183.634 47.254,184.626C45.979,185.618 44.414,185.965 42.807,185.804C41.227,185.739 39.934,184.863 38.942,183.588M29.094,189.86C27.172,190.414 25.345,190.213 23.516,189.283C21.659,188.257 20.612,186.79 20.058,184.868C19.754,183.811 19.573,182.822 19.556,181.682L19.584,181.778C19.481,178.894 19.31,176.134 18.85,173.456C18.585,171.451 19.006,169.665 20.211,168.069C21.389,166.376 23.008,165.494 24.985,165.132C26.962,164.77 28.776,165.288 30.468,166.465C32.065,167.67 33.043,169.261 33.309,171.266C33.783,174.356 34.025,177.72 34.17,181.113C34.6,182.966 34.37,184.697 33.481,186.306C32.524,188.039 31.016,189.307 29.094,189.86M61.428,195.527C59.889,195.242 58.691,194.338 57.919,193.104C57.024,191.801 56.828,190.4 57.113,188.861C57.263,188.298 57.289,187.666 57.562,187.171L57.631,187.047C58.516,183.982 58.646,180.822 57.952,177.692C57.633,176.223 57.822,174.712 58.698,173.419C59.45,172.057 60.685,171.285 62.25,170.938C63.719,170.619 65.23,170.807 66.523,171.683C67.885,172.436 68.657,173.67 69.004,175.235C70.128,180.219 69.892,185.178 68.448,190.277L68.476,190.373C68.367,190.717 68.326,190.937 68.217,191.281C67.932,192.82 67.028,194.017 65.822,194.885C64.34,195.52 62.967,195.812 61.428,195.527M39.547,231.181C38.036,230.992 36.922,230.377 35.957,229.198C35.117,228.087 34.729,226.742 34.822,225.258C34.998,224.063 35.05,222.799 35.253,221.699C36.184,214.458 36.003,207.33 34.613,200.342C34.293,198.873 34.538,197.554 35.441,196.356C36.221,195.091 37.36,194.347 38.829,194.027C40.298,193.708 41.617,193.952 42.91,194.828C44.08,195.636 44.92,196.747 45.239,198.216C46.893,206.481 47.215,214.817 46.108,223.254L46.04,223.378C45.836,224.477 45.729,225.549 45.621,226.62C45.405,228.035 44.817,229.246 43.638,230.21C42.28,230.914 41.031,231.274 39.547,231.181M55.893,225.429C54.285,225.268 53.048,224.584 52.056,223.309C51.064,222.034 50.676,220.688 50.865,219.177C51.148,216.91 51.335,214.671 51.522,212.431C51.683,210.824 52.367,209.586 53.546,208.622C54.725,207.657 56.139,207.146 57.65,207.335C59.258,207.496 60.495,208.18 61.487,209.455C62.479,210.73 62.963,212.047 62.774,213.559C62.491,215.826 62.332,218.161 62.076,220.525C61.915,222.132 61.231,223.37 59.956,224.362C58.846,225.202 57.404,225.618 55.893,225.429Z" style="fill:rgb(200,200,200);fill-rule:nonzero;"/>
        <path id="golgi_0_Layer0_0_1_STROKES" d="M50.865,219.177C51.148,216.91 51.335,214.671 51.522,212.431C51.683,210.824 52.367,209.586 53.546,208.622C54.725,207.657 56.139,207.146 57.65,207.335C59.258,207.496 60.495,208.18 61.487,209.455C62.479,210.73 62.963,212.047 62.774,213.559C62.491,215.826 62.332,218.161 62.076,220.525C61.915,222.132 61.231,223.37 59.956,224.362C58.681,225.354 57.336,225.741 55.824,225.553C54.217,225.391 52.979,224.708 51.987,223.432C51.091,222.13 50.676,220.688 50.865,219.177ZM35.349,221.672C36.28,214.431 36.099,207.302 34.709,200.314C34.39,198.845 34.634,197.526 35.538,196.329C36.318,195.063 37.456,194.319 38.925,194C40.394,193.68 41.713,193.924 43.006,194.8C44.176,195.608 45.016,196.719 45.335,198.188C46.989,206.453 47.311,214.79 46.204,223.226L46.136,223.35C45.932,224.449 45.825,225.521 45.717,226.593C45.501,228.008 44.913,229.218 43.734,230.182C42.623,231.023 41.278,231.41 39.794,231.318C38.283,231.129 37.169,230.513 36.205,229.334C35.364,228.224 34.977,226.878 35.069,225.395C34.97,223.966 35.077,222.895 35.349,221.672ZM57.507,186.979C58.393,183.913 58.523,180.754 57.828,177.624C57.509,176.155 57.698,174.643 58.574,173.35C59.326,171.989 60.561,171.217 62.126,170.87C63.595,170.55 65.106,170.739 66.399,171.615C67.761,172.367 68.533,173.602 68.88,175.167C70.004,180.15 69.769,185.11 68.324,190.209L68.352,190.305C68.243,190.649 68.202,190.868 68.093,191.212C67.808,192.751 66.905,193.948 65.698,194.816C64.491,195.685 62.994,195.908 61.428,195.527C59.889,195.242 58.691,194.338 57.919,193.104C57.024,191.801 56.828,190.4 57.113,188.861C57.263,188.298 57.289,187.666 57.562,187.171C57.438,187.102 57.411,187.006 57.507,186.979ZM19.584,181.778C19.481,178.894 19.31,176.134 18.85,173.456C18.585,171.451 19.006,169.665 20.211,168.069C21.389,166.376 23.008,165.494 24.985,165.132C26.989,164.866 28.776,165.288 30.468,166.465C32.065,167.67 33.043,169.261 33.309,171.266C33.783,174.356 34.025,177.72 34.17,181.113C34.6,182.966 34.37,184.697 33.481,186.306C32.428,188.067 30.988,189.21 29.066,189.764C27.145,190.318 25.317,190.116 23.488,189.187C21.632,188.161 20.584,186.694 20.03,184.772C19.726,183.715 19.545,182.726 19.529,181.586L19.584,181.778ZM37.86,179.112C37.873,178.796 37.762,178.412 37.624,177.932C36.865,176.381 36.861,174.925 37.435,173.303C38.035,171.777 39.063,170.648 40.613,169.889C42.068,169.158 43.62,169.127 45.146,169.728C46.672,170.329 47.801,171.356 48.436,172.838C49.623,175.514 50.055,178.095 49.663,180.706C49.406,182.341 48.626,183.607 47.351,184.598C46.075,185.59 44.51,185.937 42.903,185.776C41.268,185.519 39.906,184.767 38.914,183.492C37.95,182.313 37.507,180.775 37.86,179.112ZM1.961,146.271C0.992,142.908 1.537,135.05 3.719,122.765C4.004,121.226 4.812,120.057 6.087,119.065C7.39,118.169 8.735,117.781 10.274,118.066C11.813,118.351 12.983,119.159 13.975,120.434C14.871,121.737 15.162,123.109 14.877,124.649C13.17,134.611 12.525,141.041 13.013,143.814C13.637,146.34 14.011,148.001 14.384,148.935C14.992,150.32 15.091,151.749 14.49,153.275C13.986,154.773 12.93,155.806 11.545,156.413C10.159,157.021 8.73,157.12 7.204,156.52C5.706,156.015 4.673,154.96 4.066,153.574C3.486,152.284 2.766,149.786 1.961,146.271ZM24.35,110.575C23.101,110.935 22.057,110.924 20.902,110.528C20.205,112.082 19.109,113.334 17.463,114.121C15.652,115.059 13.715,115.201 11.873,114.587C9.935,114.001 8.531,112.741 7.593,110.93C6.751,109.091 6.541,107.278 7.127,105.34C9.09,99.155 11.92,93.448 15.561,88.027C19.367,82.456 23.751,77.446 28.685,72.901C33.414,68.728 38.406,65.104 43.948,61.946C46.801,60.291 49.682,58.732 52.742,57.434C54.58,56.592 56.448,56.574 58.318,57.284C60.188,57.993 61.592,59.254 62.434,61.093C63.276,62.931 63.294,64.799 62.584,66.669C61.984,68.195 60.984,69.42 59.777,70.288C59.901,70.356 60.024,70.425 60.148,70.493C60.863,70.807 61.51,71.245 62.02,71.931C65.366,69.822 68.92,68.069 72.68,66.673L72.776,66.645C74.574,66.023 76.344,65.305 78.115,64.586C82.424,62.928 86.347,60.652 89.733,57.595C91.048,56.383 92.488,55.24 93.859,54.22C95.299,53.077 96.615,51.865 97.655,50.42L97.724,50.297C98.86,48.824 100.368,47.557 102.179,46.619C103.798,45.736 105.515,45.553 107.233,46.099C108.951,46.644 110.3,47.713 111.182,49.331C112.065,50.95 112.248,52.667 111.702,54.385C111.157,56.103 109.993,57.479 108.374,58.362C108.278,58.39 108.209,58.514 108.113,58.541C106.374,60.812 104.36,62.849 102.042,64.558C100.836,65.426 99.753,66.363 98.601,67.423C97.518,68.36 96.504,69.172 95.297,70.041C95.888,70.286 96.411,70.656 96.962,71.122C97.085,71.19 97.237,71.355 97.388,71.519C97.95,70.941 98.388,70.294 98.799,69.552C99.647,68.162 100.95,67.267 102.515,66.92C104.176,66.545 105.591,66.761 107.008,67.706C108.398,68.554 109.293,69.857 109.64,71.422C110.015,73.083 109.703,74.526 108.854,75.916C107.061,78.722 104.842,81.131 102.36,82.991L102.456,82.963C95.532,88.185 87.794,92.392 79.588,95.694C73.701,98.016 68.502,101.283 63.773,105.456L63.869,105.428C61.375,107.604 58.907,109.876 56.412,112.052L56.44,112.149C53.74,114.696 51.851,117.53 50.76,120.966C50.283,122.561 49.379,123.758 47.925,124.489C46.471,125.221 44.974,125.444 43.38,124.967C41.785,124.49 40.588,123.586 39.733,122.063C39.002,120.609 38.778,119.112 39.255,117.518C40.169,114.549 41.454,111.785 43.206,109.199C42.45,109.104 41.763,108.886 41.02,108.476C39.2,111.186 37.723,114.005 36.37,116.893C35.085,119.657 33.924,122.489 33.079,125.334C34.137,125.758 34.991,126.552 35.68,127.498C35.748,127.375 35.94,127.319 36.133,127.264C37.764,126.065 39.618,125.635 41.597,126.001C43.575,126.368 45.212,127.353 46.287,128.916C47.486,130.548 47.916,132.401 47.578,134.476C46.425,140.948 45.932,147.543 45.947,154.095C46.377,155.948 46.12,157.583 45.231,159.192C44.178,160.953 42.738,162.096 40.816,162.65C38.895,163.204 37.067,163.002 35.238,162.072C33.381,161.047 32.334,159.579 31.78,157.658C31.531,156.793 31.378,155.9 31.321,154.98C30.936,155.091 30.62,155.078 30.236,155.189C30.419,156.905 30.038,158.472 28.929,160.04C27.792,161.513 26.366,162.34 24.581,162.647C22.768,162.857 21.105,162.504 19.633,161.367C18.16,160.23 17.333,158.804 17.027,157.019C15.883,149.439 15.975,141.816 17.331,134.244C18.824,126.425 21.196,118.769 24.599,111.44C24.804,111.068 24.982,110.601 25.187,110.229C24.638,110.492 24.446,110.547 24.35,110.575ZM72.056,141.054C69.418,146.705 68.608,152.558 69.789,158.462C70.151,160.439 69.757,162.322 68.676,163.986C67.594,165.651 66.031,166.726 64.054,167.088C62.077,167.449 60.222,167.152 58.529,165.974C56.865,164.893 55.79,163.33 55.428,161.352C53.581,152.415 54.769,143.539 58.828,134.876C61.985,128.138 65.817,121.934 70.543,116.305L70.611,116.181C75.008,110.856 80.066,106.38 85.73,102.562L85.826,102.534C91.257,98.991 97.047,95.97 103.154,93.689C105.116,92.915 107.066,92.458 109.071,92.192C111.075,91.926 112.89,92.444 114.486,93.649C116.082,94.854 117.061,96.445 117.258,98.574C117.524,100.579 117.006,102.393 115.801,103.989C114.596,105.585 112.909,106.592 110.904,106.857C110.012,107.011 109.023,107.191 108.282,107.509C103.136,109.513 98.32,111.941 93.767,114.919C89.241,117.993 85.266,121.532 81.801,125.757C77.91,130.312 74.626,135.526 72.056,141.054ZM113.308,124.585C108.337,125.393 104.29,127.6 101.139,131.11C100.043,132.363 98.685,133.066 97.037,133.125C95.416,133.28 93.918,132.775 92.666,131.679C91.413,130.583 90.709,129.225 90.651,127.577C90.496,125.956 91.001,124.458 92.096,123.205C97.014,117.521 103.393,114.017 111.233,112.694L111.137,112.722C111.33,112.667 111.646,112.68 111.838,112.624C113.471,112.153 114.983,112.342 116.44,113.067C117.802,113.819 118.794,115.094 119.265,116.728C119.735,118.361 119.547,119.873 118.822,121.33C117.974,122.72 116.795,123.684 115.161,124.155C114.516,124.445 113.912,124.515 113.308,124.585ZM89.574,48.379C84.089,52.457 78.673,56.412 73.256,60.367C71.624,61.566 69.839,61.872 67.792,61.63C65.813,61.263 64.177,60.278 63.074,58.619C61.875,56.987 61.445,55.133 61.811,53.155C62.15,51.08 63.163,49.539 64.698,48.368C70.046,44.537 75.463,40.582 80.756,36.559C83.827,34.217 86.719,31.614 89.432,28.751C89.154,27.062 89.411,25.427 90.3,23.818C91.353,22.057 92.889,20.886 94.811,20.332C96.76,19.874 98.588,20.076 100.348,21.13C102.109,22.183 103.252,23.623 103.738,25.668C104.999,30.404 103.909,34.569 100.429,38.381C97.045,42.167 93.399,45.403 89.574,48.379ZM131.752,34.765C126.443,37.648 121.864,41.257 117.905,45.937C116.905,47.162 115.615,47.741 113.995,47.896C112.471,48.023 111.096,47.587 109.844,46.491C108.619,45.491 108.039,44.201 107.884,42.581C107.757,41.057 108.193,39.682 109.317,38.526C114.235,32.841 119.897,28.295 126.276,24.792C131.489,21.936 137.103,20.11 143.021,19.341L142.925,19.369C148.623,18.559 154.447,18.545 160.369,19.232C163.832,19.691 167.281,20.466 170.662,21.365C172.133,21.773 173.33,22.677 174.034,24.035C174.737,25.393 174.933,26.794 174.552,28.361C174.143,29.831 173.239,31.029 171.909,31.828C170.551,32.532 169.054,32.755 167.583,32.347C164.71,31.405 161.852,30.876 158.925,30.471C154.075,29.892 149.268,29.821 144.489,30.573C140.095,31.215 135.703,32.585 131.752,34.765ZM133.477,55.914C128.833,61.103 123.817,66.087 118.471,70.646C117.223,71.734 115.686,72.177 114.078,72.016C112.471,71.855 111.013,71.13 110.021,69.855C108.933,68.608 108.518,67.167 108.651,65.463C108.812,63.856 109.537,62.398 110.812,61.406C115.734,57.178 120.38,52.716 124.723,47.926C127.641,44.692 130.917,41.978 134.648,39.758L134.745,39.73C137.858,37.896 141.151,36.323 144.596,34.914C149.742,32.91 154.729,33.242 159.515,36.129C160.905,36.977 161.897,38.252 162.34,39.79C162.715,41.451 162.498,42.866 161.677,44.352C160.829,45.741 159.554,46.733 157.989,47.08C156.328,47.455 154.816,47.266 153.427,46.417C152.038,45.569 150.554,45.476 149.168,46.084C146.273,47.231 143.46,48.666 140.771,50.169C137.671,51.687 135.409,53.588 133.477,55.914ZM123.269,72.489C124.927,70.659 126.708,68.896 128.338,66.969C129.366,65.841 130.724,65.137 132.276,65.106C133.828,65.075 135.23,65.607 136.359,66.635C137.488,67.662 138.068,68.952 138.127,70.6C138.158,72.153 137.721,73.527 136.694,74.656C135.036,76.487 133.282,78.345 131.528,80.203C130.501,81.332 129.115,81.94 127.563,81.971C126.011,82.002 124.608,81.469 123.48,80.442C122.351,79.414 121.771,78.124 121.712,76.476C121.681,74.924 122.241,73.618 123.269,72.489ZM131.65,14.189C125.624,16.03 120.549,19.366 116.426,24.196C115.426,25.421 114.136,26.001 112.544,26.252C110.951,26.503 109.645,25.943 108.42,24.943C107.195,23.943 106.519,22.681 106.364,21.061C106.237,19.536 106.673,18.162 107.673,16.937C113.138,10.262 120.161,5.741 128.396,3.263C131.183,2.46 134.025,1.849 136.95,1.526C138.474,1.399 139.821,1.739 141.142,2.711C142.463,3.683 143.139,4.946 143.294,6.566C143.421,8.09 143.08,9.437 142.108,10.758C141.108,11.983 139.874,12.755 138.35,12.882C135.905,13.066 133.763,13.58 131.65,14.189ZM189.33,33.78C187.873,33.055 186.374,32.55 184.835,32.265C183.269,31.884 182.099,31.077 181.299,29.746C180.403,28.443 180.208,27.043 180.589,25.476C180.874,23.937 181.778,22.74 183.012,21.968C184.315,21.072 185.715,20.876 187.282,21.257C189.728,21.801 192.038,22.592 194.211,23.631C195.297,24.151 196.315,24.794 197.416,25.725C198.641,26.725 199.221,28.015 199.375,29.635C199.503,31.16 199.066,32.534 197.97,33.787C196.874,35.039 195.681,35.592 194.06,35.747C192.536,35.874 191.161,35.437 189.909,34.341C189.702,33.985 189.454,33.848 189.33,33.78Z" style="fill:none;stroke:rgb(169,153,106);stroke-width:3px;"/>
    </g>
</svg>
