<?xml version="1.0" encoding="UTF-8" standalone="no"?>
<!DOCTYPE svg PUBLIC "-//W3C//DTD SVG 1.1//EN" "http://www.w3.org/Graphics/SVG/1.1/DTD/svg11.dtd">
<svg viewBox="0 0 50 50" version="1.1" xmlns="http://www.w3.org/2000/svg" xmlns:xlink="http://www.w3.org/1999/xlink" xml:space="preserve" style="fill-rule:evenodd;clip-rule:evenodd;stroke-linecap:round;stroke-linejoin:round;">
    <g id="melanosome">
        <path id="Layer0_28_FILL" d="M29.528,16.916C29.391,12.322 27.897,8.969 25.046,6.855C22.648,4.643 19.855,3.742 16.668,4.153C15.613,4.221 14.603,4.359 13.641,4.566C13.301,4.64 12.963,4.718 12.626,4.798C9.611,5.548 7.298,7.255 5.686,9.92C4.448,11.973 3.834,14.325 3.844,16.976C3.994,20.642 5.269,23.684 7.669,26.101C10.132,28.48 13.267,29.725 17.075,29.838C18.917,29.735 20.72,29.193 22.483,28.209C24.195,27.278 25.594,26.224 26.681,25.047C28.59,23.004 29.539,20.293 29.528,16.916Z" style="fill:url(#white);fill-rule:nonzero;"/>
        <path id="Layer0_28_1_STROKES" d="M29.53,16.916C29.541,20.294 28.592,23.004 26.683,25.047C25.596,26.225 24.196,27.279 22.485,28.21C20.722,29.194 18.919,29.736 17.076,29.838C13.27,29.726 10.134,28.481 7.671,26.102C5.272,23.685 3.996,20.642 3.845,16.977C3.836,14.325 4.45,11.974 5.688,9.92C7.3,7.256 9.613,5.548 12.627,4.798C12.964,4.718 13.303,4.641 13.643,4.567C14.606,4.359 15.615,4.222 16.67,4.154C19.858,3.743 22.649,4.643 25.048,6.856C27.9,8.97 29.393,12.323 29.53,16.916Z" style="fill:none;stroke:white;stroke-width:0.69px;"/>
        <path id="gearnubs_0_Layer0_0_FILL8"  d="M2.532,17.63L2.578,17.9L2.295,17.821C2.166,17.86 2.069,17.94 2.003,18.059C1.94,18.178 1.929,18.301 1.967,18.427L2.245,18.575L1.935,18.737C1.869,18.855 1.856,18.979 1.895,19.108C1.932,19.235 2.01,19.331 2.128,19.395L2.469,19.395L2.324,19.632C2.362,19.762 2.44,19.86 2.555,19.925C2.676,19.989 2.801,20.002 2.929,19.963L3.104,19.68L3.233,19.998C3.352,20.063 3.476,20.077 3.603,20.038C3.735,19.999 3.833,19.92 3.897,19.803L3.807,19.484L4.134,19.607C4.265,19.568 4.362,19.49 4.426,19.372C4.488,19.254 4.5,19.13 4.461,18.999L4.151,18.779L4.492,18.693C4.559,18.576 4.573,18.453 4.536,18.325C4.497,18.196 4.417,18.099 4.298,18.036L4.024,18.099L4.105,17.794C4.066,17.668 3.989,17.572 3.874,17.505C3.755,17.44 3.63,17.427 3.5,17.465L3.36,17.703L3.195,17.434C3.078,17.371 2.953,17.358 2.821,17.397C2.693,17.436 2.597,17.514 2.532,17.63Z" style="fill:rgb(118,238,238);fill-rule:nonzero;"/>
        <path id="gearnubs_0_Layer0_1_FILL8"  d="M4.355,15.578L4.669,15.164C4.669,14.96 4.598,14.787 4.455,14.646C4.311,14.507 4.138,14.438 3.934,14.438L3.487,14.787L3.514,14.261C3.372,14.118 3.202,14.046 3.002,14.046C2.802,14.046 2.631,14.118 2.49,14.261L2.461,14.681L2.061,14.438C1.863,14.438 1.692,14.507 1.55,14.646C1.406,14.787 1.335,14.96 1.335,15.164L1.614,15.463L1.158,15.584C1.019,15.727 0.95,15.901 0.95,16.105C0.95,16.305 1.019,16.476 1.158,16.619L1.564,16.667L1.335,17.037C1.335,17.237 1.406,17.41 1.55,17.557C1.692,17.695 1.863,17.763 2.061,17.763L2.39,17.43L2.49,17.942C2.631,18.085 2.802,18.157 3.002,18.157C3.202,18.157 3.372,18.085 3.514,17.942L3.658,17.457L3.934,17.763C4.138,17.763 4.311,17.695 4.455,17.557C4.598,17.41 4.669,17.237 4.669,17.037L4.334,16.667L4.846,16.619C4.989,16.476 5.06,16.305 5.06,16.105C5.06,15.901 4.989,15.727 4.846,15.584L4.355,15.578Z" style="fill:rgb(118,238,238);fill-rule:nonzero;"/>
        <path id="gearnubs_0_Layer0_0_FILL9"  d="M29.437,16.491L29.482,16.221L29.199,16.3C29.072,16.261 28.975,16.182 28.908,16.063C28.846,15.943 28.834,15.821 28.873,15.694L29.149,15.547L28.839,15.384C28.774,15.267 28.761,15.143 28.8,15.014C28.838,14.887 28.915,14.79 29.033,14.727L29.375,14.727L29.229,14.489C29.268,14.359 29.344,14.262 29.459,14.196C29.582,14.132 29.707,14.12 29.834,14.159L30.009,14.442L30.138,14.123C30.257,14.058 30.381,14.045 30.509,14.084C30.64,14.122 30.738,14.201 30.802,14.319L30.713,14.637L31.039,14.515C31.17,14.553 31.267,14.632 31.33,14.749C31.393,14.868 31.405,14.992 31.366,15.122L31.056,15.343L31.397,15.428C31.464,15.546 31.479,15.669 31.441,15.796C31.402,15.925 31.323,16.021 31.204,16.086L30.929,16.023L31.01,16.327C30.971,16.453 30.895,16.55 30.779,16.616C30.66,16.681 30.535,16.695 30.404,16.656L30.265,16.419L30.101,16.687C29.982,16.751 29.858,16.763 29.726,16.725C29.598,16.686 29.502,16.608 29.437,16.491Z" style="fill:rgb(118,238,238);fill-rule:nonzero;"/>
        <path id="gearnubs_0_Layer0_1_FILL9"  d="M31.26,18.543L31.574,18.958C31.574,19.162 31.502,19.334 31.36,19.476C31.217,19.614 31.043,19.684 30.839,19.684L30.392,19.334L30.419,19.861C30.278,20.004 30.107,20.075 29.907,20.075C29.708,20.075 29.537,20.004 29.395,19.861L29.366,19.441L28.967,19.684C28.768,19.684 28.597,19.614 28.454,19.476C28.312,19.334 28.241,19.162 28.241,18.958L28.519,18.657L28.064,18.538C27.925,18.394 27.856,18.221 27.856,18.017C27.856,17.817 27.925,17.646 28.064,17.503L28.469,17.455L28.241,17.084C28.241,16.885 28.312,16.712 28.454,16.564C28.597,16.427 28.768,16.358 28.967,16.358L29.295,16.691L29.395,16.179C29.537,16.036 29.708,15.965 29.907,15.965C30.107,15.965 30.278,16.036 30.419,16.179L30.563,16.664L30.839,16.358C31.043,16.358 31.217,16.427 31.36,16.564C31.502,16.712 31.574,16.885 31.574,17.084L31.239,17.455L31.751,17.503C31.894,17.646 31.965,17.817 31.965,18.017C31.965,18.221 31.894,18.394 31.751,18.538L31.26,18.543Z" style="fill:rgb(118,238,238);fill-rule:nonzero;"/>
        <path id="gearnubs_0_Layer0_0_FILL10" d="M15.866,2.882L15.596,2.928L15.675,2.645C15.636,2.516 15.556,2.419 15.437,2.353C15.318,2.29 15.195,2.279 15.068,2.317L14.921,2.595L14.758,2.285C14.641,2.219 14.517,2.206 14.388,2.245C14.261,2.282 14.165,2.36 14.101,2.478L14.101,2.819L13.863,2.674C13.734,2.712 13.636,2.79 13.571,2.905C13.507,3.026 13.494,3.151 13.533,3.279L13.816,3.454L13.498,3.583C13.433,3.702 13.419,3.826 13.458,3.953C13.497,4.085 13.575,4.183 13.693,4.247L14.012,4.157L13.889,4.484C13.928,4.615 14.006,4.712 14.124,4.776C14.242,4.838 14.366,4.85 14.497,4.811L14.717,4.501L14.803,4.842C14.92,4.909 15.043,4.923 15.17,4.886C15.299,4.847 15.396,4.767 15.46,4.648L15.397,4.374L15.702,4.455C15.828,4.416 15.924,4.339 15.99,4.224C16.056,4.105 16.069,3.98 16.03,3.85L15.793,3.71L16.061,3.545C16.125,3.428 16.138,3.303 16.099,3.171C16.06,3.043 15.982,2.947 15.866,2.882Z" style="fill:rgb(118,238,238);fill-rule:nonzero;"/>
        <path id="gearnubs_0_Layer0_1_FILL10" d="M17.917,4.705L18.332,5.019C18.536,5.019 18.709,4.948 18.85,4.805C18.989,4.661 19.058,4.488 19.058,4.284L18.709,3.837L19.235,3.864C19.378,3.722 19.45,3.552 19.45,3.352C19.45,3.152 19.378,2.981 19.235,2.84L18.815,2.811L19.058,2.411C19.058,2.213 18.989,2.042 18.85,1.9C18.709,1.756 18.536,1.685 18.332,1.685L18.033,1.964L17.912,1.508C17.769,1.369 17.595,1.3 17.391,1.3C17.191,1.3 17.02,1.369 16.877,1.508L16.829,1.914L16.459,1.685C16.259,1.685 16.086,1.756 15.939,1.9C15.801,2.042 15.733,2.213 15.733,2.411L16.065,2.74L15.554,2.84C15.411,2.981 15.339,3.152 15.339,3.352C15.339,3.552 15.411,3.722 15.554,3.864L16.039,4.008L15.733,4.284C15.733,4.488 15.801,4.661 15.939,4.805C16.086,4.948 16.259,5.019 16.459,5.019L16.829,4.684L16.877,5.196C17.02,5.339 17.191,5.41 17.391,5.41C17.595,5.41 17.769,5.339 17.912,5.196L17.917,4.705Z" style="fill:rgb(118,238,238);fill-rule:nonzero;"/>
        <path id="gearnubs_0_Layer0_0_FILL11" d="M17.039,29.649L17.31,29.694L17.231,29.412C17.269,29.284 17.348,29.187 17.468,29.12C17.587,29.058 17.709,29.046 17.836,29.085L17.984,29.362L18.146,29.052C18.264,28.986 18.387,28.973 18.516,29.012C18.644,29.05 18.74,29.127 18.804,29.245L18.804,29.587L19.041,29.441C19.171,29.48 19.269,29.557 19.335,29.672C19.398,29.794 19.411,29.919 19.372,30.047L19.089,30.221L19.407,30.35C19.473,30.47 19.486,30.594 19.446,30.721C19.408,30.853 19.33,30.95 19.211,31.015L18.893,30.925L19.016,31.251C18.977,31.382 18.899,31.479 18.781,31.543C18.663,31.605 18.538,31.617 18.409,31.578L18.188,31.268L18.103,31.609C17.984,31.676 17.862,31.691 17.734,31.653C17.605,31.614 17.509,31.535 17.444,31.416L17.507,31.141L17.204,31.223C17.077,31.183 16.981,31.107 16.914,30.992C16.849,30.872 16.836,30.747 16.875,30.616L17.111,30.478L16.843,30.313C16.779,30.195 16.767,30.07 16.805,29.938C16.845,29.81 16.922,29.714 17.039,29.649Z" style="fill:rgb(118,238,238);fill-rule:nonzero;"/>
        <path id="gearnubs_0_Layer0_1_FILL11" d="M14.987,31.472L14.572,31.786C14.368,31.786 14.196,31.715 14.054,31.572C13.916,31.429 13.846,31.256 13.846,31.052L14.196,30.604L13.669,30.631C13.527,30.49 13.456,30.319 13.456,30.12C13.456,29.92 13.527,29.749 13.669,29.607L14.09,29.579L13.846,29.179C13.846,28.981 13.916,28.81 14.054,28.666C14.196,28.524 14.368,28.453 14.572,28.453L14.873,28.731L14.993,28.276C15.136,28.137 15.309,28.068 15.513,28.068C15.713,28.068 15.884,28.137 16.027,28.276L16.075,28.681L16.446,28.453C16.646,28.453 16.819,28.524 16.966,28.666C17.103,28.81 17.172,28.981 17.172,29.179L16.839,29.508L17.351,29.607C17.494,29.749 17.565,29.92 17.565,30.12C17.565,30.319 17.494,30.49 17.351,30.631L16.866,30.775L17.172,31.052C17.172,31.256 17.103,31.429 16.966,31.572C16.819,31.715 16.646,31.786 16.446,31.786L16.075,31.451L16.027,31.963C15.884,32.106 15.713,32.178 15.513,32.178C15.309,32.178 15.136,32.106 14.993,31.963L14.987,31.472Z" style="fill:rgb(118,238,238);fill-rule:nonzero;"/>
        <g id="melanin-red" visibility="hidden">
            <path id="disc_0_Layer0_0_FILL18"     d="M15.926,21.503L17.469,20.612L17.469,18.831L15.926,17.94L14.385,18.831L14.385,20.612L15.926,21.503Z" style="fill:rgb(237,111,64);fill-rule:nonzero;"/>
            <path id="disc_0_Layer0_0_FILL19"     d="M19.406,20.607L20.948,19.716L20.948,17.935L19.406,17.045L17.864,17.935L17.864,19.716L19.406,20.607Z" style="fill:rgb(237,111,64);fill-rule:nonzero;"/>
            <path id="disc_0_Layer0_0_FILL20"     d="M12.929,18.954L14.472,18.063L14.472,16.282L12.929,15.391L11.387,16.282L11.387,18.063L12.929,18.954Z" style="fill:rgb(237,111,64);fill-rule:nonzero;"/>
            <path id="disc_0_Layer0_0_FILL21"     d="M11.999,15.475L13.542,14.583L13.542,12.802L11.999,11.911L10.457,12.802L10.457,14.583L11.999,15.475Z" style="fill:rgb(237,111,64);fill-rule:nonzero;"/>
            <path id="disc_0_Layer0_0_FILL22"     d="M13.48,12.099L15.023,11.207L15.023,9.426L13.48,8.535L11.939,9.426L11.939,11.207L13.48,12.099Z" style="fill:rgb(237,111,64);fill-rule:nonzero;"/>
            <path id="disc_0_Layer0_0_FILL23"     d="M17.132,11.375L18.675,10.484L18.675,8.703L17.132,7.812L15.591,8.703L15.591,10.484L17.132,11.375Z" style="fill:rgb(237,111,64);fill-rule:nonzero;"/>
            <path id="disc_0_Layer0_0_FILL24"     d="M20.68,11.099L22.223,10.208L22.223,8.427L20.68,7.536L19.139,8.427L19.139,10.208L20.68,11.099Z" style="fill:rgb(237,111,64);fill-rule:nonzero;"/>
            <path id="disc_0_Layer0_0_FILL25"     d="M23.161,13.752L24.703,12.861L24.703,11.08L23.161,10.189L21.619,11.08L21.619,12.861L23.161,13.752Z" style="fill:rgb(237,111,64);fill-rule:nonzero;"/>
            <path id="disc_0_Layer0_0_FILL26"     d="M25.331,16.577L26.874,15.686L26.874,13.905L25.331,13.013L23.789,13.905L23.789,15.686L25.331,16.577Z" style="fill:rgb(237,111,64);fill-rule:nonzero;"/>
            <path id="disc_0_Layer0_0_FILL27"     d="M24.504,20.332L26.047,19.441L26.047,17.66L24.504,16.769L22.963,17.66L22.963,19.441L24.504,20.332Z" style="fill:rgb(237,111,64);fill-rule:nonzero;"/>
            <path id="disc_0_Layer0_0_FILL28"     d="M23.057,23.708L24.6,22.817L24.6,21.036L23.057,20.145L21.516,21.036L21.516,22.817L23.057,23.708Z" style="fill:rgb(237,111,64);fill-rule:nonzero;"/>
            <path id="disc_0_Layer0_0_FILL29"     d="M20.405,26.739L21.947,25.848L21.947,24.067L20.405,23.177L18.863,24.067L18.863,25.848L20.405,26.739Z" style="fill:rgb(237,111,64);fill-rule:nonzero;"/>
            <path id="disc_0_Layer0_0_FILL30"     d="M16.477,27.084L18.02,26.193L18.02,24.412L16.477,23.521L14.936,24.412L14.936,26.193L16.477,27.084Z" style="fill:rgb(237,111,64);fill-rule:nonzero;"/>
            <path id="disc_0_Layer0_0_FILL31"     d="M12.722,26.636L14.265,25.745L14.265,23.964L12.722,23.073L11.181,23.964L11.181,25.745L12.722,26.636Z" style="fill:rgb(237,111,64);fill-rule:nonzero;"/>
            <path id="disc_0_Layer0_0_FILL32"     d="M10.001,23.983L11.544,23.092L11.544,21.311L10.001,20.421L8.459,21.311L8.459,23.092L10.001,23.983Z" style="fill:rgb(237,111,64);fill-rule:nonzero;"/>
            <path id="disc_0_Layer0_0_FILL33"     d="M7.796,20.607L9.339,19.716L9.339,17.935L7.796,17.045L6.255,17.935L6.255,19.716L7.796,20.607Z" style="fill:rgb(237,111,64);fill-rule:nonzero;"/>
            <path id="disc_0_Layer0_0_FILL34"     d="M18.131,17.128L19.674,16.237L19.674,14.456L18.131,13.565L16.589,14.456L16.589,16.237L18.131,17.128Z" style="fill:rgb(237,111,64);fill-rule:nonzero;"/>
            <path id="disc_0_Layer0_0_FILL35"     d="M7.693,16.577L9.235,15.686L9.235,13.905L7.693,13.013L6.151,13.905L6.151,15.686L7.693,16.577Z" style="fill:rgb(237,111,64);fill-rule:nonzero;"/>
        </g>
        <g id="melanin-gray" visibility="hidden">
            <path id="disc_0_Layer0_0_FILL18"     d="M15.926,21.503L17.469,20.612L17.469,18.831L15.926,17.94L14.385,18.831L14.385,20.612L15.926,21.503Z" style="fill:rgb(132,123,112);fill-rule:nonzero;"/>
            <path id="disc_0_Layer0_0_FILL19"     d="M19.406,20.607L20.948,19.716L20.948,17.935L19.406,17.045L17.864,17.935L17.864,19.716L19.406,20.607Z" style="fill:rgb(132,123,112);fill-rule:nonzero;"/>
            <path id="disc_0_Layer0_0_FILL20"     d="M12.929,18.954L14.472,18.063L14.472,16.282L12.929,15.391L11.387,16.282L11.387,18.063L12.929,18.954Z" style="fill:rgb(132,123,112);fill-rule:nonzero;"/>
            <path id="disc_0_Layer0_0_FILL21"     d="M11.999,15.475L13.542,14.583L13.542,12.802L11.999,11.911L10.457,12.802L10.457,14.583L11.999,15.475Z" style="fill:rgb(132,123,112);fill-rule:nonzero;"/>
            <path id="disc_0_Layer0_0_FILL22"     d="M13.48,12.099L15.023,11.207L15.023,9.426L13.48,8.535L11.939,9.426L11.939,11.207L13.48,12.099Z" style="fill:rgb(132,123,112);fill-rule:nonzero;"/>
            <path id="disc_0_Layer0_0_FILL23"     d="M17.132,11.375L18.675,10.484L18.675,8.703L17.132,7.812L15.591,8.703L15.591,10.484L17.132,11.375Z" style="fill:rgb(132,123,112);fill-rule:nonzero;"/>
            <path id="disc_0_Layer0_0_FILL24"     d="M20.68,11.099L22.223,10.208L22.223,8.427L20.68,7.536L19.139,8.427L19.139,10.208L20.68,11.099Z" style="fill:rgb(132,123,112);fill-rule:nonzero;"/>
            <path id="disc_0_Layer0_0_FILL25"     d="M23.161,13.752L24.703,12.861L24.703,11.08L23.161,10.189L21.619,11.08L21.619,12.861L23.161,13.752Z" style="fill:rgb(132,123,112);fill-rule:nonzero;"/>
            <path id="disc_0_Layer0_0_FILL26"     d="M25.331,16.577L26.874,15.686L26.874,13.905L25.331,13.013L23.789,13.905L23.789,15.686L25.331,16.577Z" style="fill:rgb(132,123,112);fill-rule:nonzero;"/>
            <path id="disc_0_Layer0_0_FILL27"     d="M24.504,20.332L26.047,19.441L26.047,17.66L24.504,16.769L22.963,17.66L22.963,19.441L24.504,20.332Z" style="fill:rgb(132,123,112);fill-rule:nonzero;"/>
            <path id="disc_0_Layer0_0_FILL28"     d="M23.057,23.708L24.6,22.817L24.6,21.036L23.057,20.145L21.516,21.036L21.516,22.817L23.057,23.708Z" style="fill:rgb(132,123,112);fill-rule:nonzero;"/>
            <path id="disc_0_Layer0_0_FILL29"     d="M20.405,26.739L21.947,25.848L21.947,24.067L20.405,23.177L18.863,24.067L18.863,25.848L20.405,26.739Z" style="fill:rgb(132,123,112);fill-rule:nonzero;"/>
            <path id="disc_0_Layer0_0_FILL30"     d="M16.477,27.084L18.02,26.193L18.02,24.412L16.477,23.521L14.936,24.412L14.936,26.193L16.477,27.084Z" style="fill:rgb(132,123,112);fill-rule:nonzero;"/>
            <path id="disc_0_Layer0_0_FILL31"     d="M12.722,26.636L14.265,25.745L14.265,23.964L12.722,23.073L11.181,23.964L11.181,25.745L12.722,26.636Z" style="fill:rgb(132,123,112);fill-rule:nonzero;"/>
            <path id="disc_0_Layer0_0_FILL32"     d="M10.001,23.983L11.544,23.092L11.544,21.311L10.001,20.421L8.459,21.311L8.459,23.092L10.001,23.983Z" style="fill:rgb(132,123,112);fill-rule:nonzero;"/>
            <path id="disc_0_Layer0_0_FILL33"     d="M7.796,20.607L9.339,19.716L9.339,17.935L7.796,17.045L6.255,17.935L6.255,19.716L7.796,20.607Z" style="fill:rgb(132,123,112);fill-rule:nonzero;"/>
            <path id="disc_0_Layer0_0_FILL34"     d="M18.131,17.128L19.674,16.237L19.674,14.456L18.131,13.565L16.589,14.456L16.589,16.237L18.131,17.128Z" style="fill:rgb(132,123,112);fill-rule:nonzero;"/>
            <path id="disc_0_Layer0_0_FILL35"     d="M7.693,16.577L9.235,15.686L9.235,13.905L7.693,13.013L6.151,13.905L6.151,15.686L7.693,16.577Z" style="fill:rgb(132,123,112);fill-rule:nonzero;"/>
        </g>
    </g>
    <defs>
        <radialGradient id="white" cx="0" cy="0" r="1" gradientUnits="userSpaceOnUse" gradientTransform="matrix(13.1881,0,0,13.1881,16.5681,17.0674)"><stop offset="0" style="stop-color:rgb(196,198,193);stop-opacity:1"/><stop offset="0.98" style="stop-color:rgb(255,206,180);stop-opacity:0.109804"/><stop offset="1" style="stop-color:rgb(255,206,180);stop-opacity:0.109804"/></radialGradient>
        <radialGradient id="gray" cx="0" cy="0" r="1" gradientUnits="userSpaceOnUse" gradientTransform="matrix(13.4199,0,0,13.4199,17.078,16.883)"><stop offset="0" style="stop-color:rgb(88,96,92);stop-opacity:1"/><stop offset="1" style="stop-color:rgb(255,206,180);stop-opacity:0.109804"/></radialGradient>
        <radialGradient id="red" cx="0" cy="0" r="1" gradientUnits="userSpaceOnUse" gradientTransform="matrix(14.8148,0,0,14.8148,16.6849,16.9468)"><stop offset="0" style="stop-color:rgb(253,77,17);stop-opacity:1"/><stop offset="1" style="stop-color:rgb(255,206,180);stop-opacity:0.109804"/></radialGradient>
    </defs>
</svg>
