<?xml version="1.0" encoding="UTF-8" standalone="no"?>
<!DOCTYPE svg PUBLIC "-//W3C//DTD SVG 1.1//EN" "http://www.w3.org/Graphics/SVG/1.1/DTD/svg11.dtd">
<svg viewBox="0 0 50 50" version="1.1" xmlns="http://www.w3.org/2000/svg" xmlns:xlink="http://www.w3.org/1999/xlink" xml:space="preserve" style="fill-rule:evenodd;clip-rule:evenodd;stroke-linecap:round;stroke-linejoin:round;">
    <g id="melanosome">
        <radialGradient id="_Radial1" cx="0" cy="0" r="1" gradientUnits="userSpaceOnUse" gradientTransform="matrix(16.4871,0,0,-16.4871,15.5554,16.1143)"><stop offset="0" style="stop-color:rgb(255,206,180);stop-opacity:0.105882"/><stop offset="0.53" style="stop-color:rgb(255,206,180);stop-opacity:0.105882"/><stop offset="1" style="stop-color:rgb(251,192,162);stop-opacity:1"/></radialGradient>
        <path id="Layer1_0_FILL" d="M31.5,16.1C31.3,10.4 29.5,6.3 26,3.6C23,0.9 19.6,-0.3 15.6,0.3C14.3,0.4 13,0.6 11.9,0.8C11.5,0.9 11.1,1 10.6,1.1C6.9,2 4,4.1 2,7.4C0.5,9.9 -0.3,12.9 -0.3,16.1C-0.1,20.6 1.5,24.4 4.4,27.4C7.4,30.3 11.3,31.9 16,32C18.3,31.9 20.5,31.2 22.7,30C24.8,28.8 26.6,27.5 27.9,26.1C30.3,23.6 31.5,20.3 31.5,16.1Z" style="fill:url(#_Radial1);fill-rule:nonzero;"/>
        <path id="Layer1_0_1_STROKES" d="M31.5,16.1C31.5,20.3 30.3,23.6 28,26.2C26.7,27.7 24.9,29 22.8,30.1C20.6,31.3 18.4,32 16.1,32.1C11.4,32 7.5,30.4 4.5,27.5C1.5,24.5 0,20.7 -0.2,16.2C-0.2,12.9 0.5,10 2.1,7.5C4.1,4.2 7,2.1 10.7,1.2C11.1,1.1 11.5,1 12,0.9C13.2,0.6 14.4,0.5 15.7,0.4C19.6,-0.1 23.1,1 26.1,3.7C29.4,6.2 31.3,10.4 31.5,16.1Z" style="fill:none;stroke:white;stroke-width:1px;"/>
    </g>
    <defs>
    </defs>
</svg>
